<svg width="21" height="14" viewBox="0 0 21 14" xmlns="http://www.w3.org/2000/svg">
<path fill-rule="evenodd" clip-rule="evenodd" d="M1.01424 0.000100432C0.653607 -0.00499986 0.318161 0.184476 0.136355 0.495973C-0.0454516 0.807471 -0.0454516 1.19273 0.136355 1.50423C0.318161 1.81573 0.653607 2.0052 1.01424 2.0001H19.0142C19.3749 2.0052 19.7103 1.81573 19.8921 1.50423C20.0739 1.19273 20.0739 0.807471 19.8921 0.495973C19.7103 0.184476 19.3749 -0.00499986 19.0142 0.000100432H1.01424ZM1.01424 6.0001C0.653607 5.995 0.318161 6.18448 0.136355 6.49597C-0.0454516 6.80747 -0.0454516 7.19273 0.136355 7.50423C0.318161 7.81573 0.653607 8.0052 1.01424 8.0001H19.0142C19.3749 8.0052 19.7103 7.81573 19.8921 7.50423C20.0739 7.19273 20.0739 6.80747 19.8921 6.49597C19.7103 6.18448 19.3749 5.995 19.0142 6.0001H1.01424ZM1.01424 12.0001C0.653607 11.995 0.318161 12.1845 0.136355 12.496C-0.0454516 12.8075 -0.0454516 13.1927 0.136355 13.5042C0.318161 13.8157 0.653607 14.0052 1.01424 14.0001H19.0142C19.3749 14.0052 19.7103 13.8157 19.8921 13.5042C20.0739 13.1927 20.0739 12.8075 19.8921 12.496C19.7103 12.1845 19.3749 11.995 19.0142 12.0001H1.01424Z"/>
</svg>
