<svg width="18" height="18" viewBox="0 0 18 18" xmlns="http://www.w3.org/2000/svg">
<path d="M1.28915 0.000561503C0.767041 0.000698661 0.297077 0.317259 0.100613 0.801138C-0.0958505 1.28502 0.0203635 1.83972 0.394516 2.20398L7.18568 8.99723L0.394516 15.7905C0.0593343 16.1124 -0.0756847 16.5904 0.0415316 17.0402C0.158748 17.49 0.509883 17.8412 0.959517 17.9585C1.40915 18.0757 1.88702 17.9406 2.20883 17.6054L9 10.8121L15.7912 17.6054C16.113 17.9406 16.5908 18.0757 17.0405 17.9585C17.4901 17.8412 17.8413 17.49 17.9585 17.0402C18.0757 16.5904 17.9407 16.1124 17.6055 15.7905L10.8143 8.99723L17.6055 2.20398C17.985 1.835 18.0991 1.27083 17.8928 0.783316C17.6865 0.295802 17.2022 -0.0150432 16.6733 0.000561503C16.3399 0.0104968 16.0235 0.149853 15.7912 0.389105L9 7.18236L2.20883 0.389105C1.96727 0.140716 1.63557 0.000581703 1.28915 0.000561503Z"/>
</svg>
