<svg width="21" height="21" viewBox="0 0 21 21" xmlns="http://www.w3.org/2000/svg">
<path fill-rule="evenodd" clip-rule="evenodd" d="M0 10.5C0 4.6935 4.6935 0 10.5 0C16.3065 0 21 4.6935 21 10.5C21 16.3065 16.3065 21 10.5 21C4.6935 21 0 16.3065 0 10.5ZM15.4424 15.4424C15.8529 15.0318 15.8529 14.3682 15.4424 13.9576L11.9847 10.5L15.4424 7.04235C15.8529 6.6318 15.8529 5.9682 15.4424 5.55765C15.0318 5.1471 14.3682 5.1471 13.9576 5.55765L10.5 9.0153L7.04235 5.55765C6.6318 5.1471 5.9682 5.1471 5.55765 5.55765C5.1471 5.9682 5.1471 6.6318 5.55765 7.04235L9.0153 10.5L5.55765 13.9576C5.1471 14.3682 5.1471 15.0318 5.55765 15.4424C5.7624 15.6471 6.0312 15.75 6.3 15.75C6.5688 15.75 6.8376 15.6471 7.04235 15.4424L10.5 11.9847L13.9576 15.4424C14.1624 15.6471 14.4312 15.75 14.7 15.75C14.9688 15.75 15.2376 15.6471 15.4424 15.4424Z"/>
</svg>
