<svg width="22" height="22" viewBox="0 0 22 22" xmlns="http://www.w3.org/2000/svg">
<path fill-rule="evenodd" clip-rule="evenodd" d="M0 10.9999C0 4.93748 4.93753 0 11 0C17.0625 0 22 4.93748 22 10.9999V12.6499C22 14.7632 20.2633 16.4998 18.15 16.4998C16.8275 16.4998 15.6538 15.8188 14.9596 14.7918C13.9566 15.8386 12.5549 16.4998 11 16.4998C7.97546 16.4998 5.5 14.0244 5.5 10.9999C5.5 7.97538 7.97546 5.49995 11 5.49995C13.9832 5.49995 16.4272 7.90935 16.4936 10.8774C16.498 10.9181 16.5001 10.959 16.5 10.9999V12.6499C16.5 13.5748 17.2251 14.2999 18.15 14.2999C19.0749 14.2999 19.8 13.5748 19.8 12.6499V10.9999C19.8 6.12621 15.8737 2.19998 11 2.19998C6.12627 2.19998 2.2 6.12621 2.2 10.9999C2.2 15.8736 6.12627 19.7998 11 19.7998H15.4C15.7967 19.7942 16.1657 20.0026 16.3657 20.3453C16.5657 20.6879 16.5657 21.1117 16.3657 21.4543C16.1657 21.797 15.7967 22.0054 15.4 21.9998H11C4.93753 21.9998 0 17.0623 0 10.9999ZM14.3 10.9999C14.3 9.16434 12.8356 7.69992 11 7.69992C9.16443 7.69992 7.7 9.16434 7.7 10.9999C7.7 12.8354 9.16443 14.2999 11 14.2999C12.8356 14.2999 14.3 12.8354 14.3 10.9999Z"/>
</svg>
