<svg width="23" height="18" viewBox="0 0 23 18" xmlns="http://www.w3.org/2000/svg">
<path fill-rule="evenodd" clip-rule="evenodd" d="M20.7 0H2.3C1.02925 0 0 1.00688 0 2.25V15.75C0 16.9931 1.02925 18 2.3 18H20.7C21.9708 18 23 16.9931 23 15.75V2.25C23 1.00688 21.9708 0 20.7 0ZM9.2 4.5C9.8348 4.5 10.35 5.004 10.35 5.625C10.35 6.246 9.8348 6.75 9.2 6.75C8.5652 6.75 8.05 6.246 8.05 5.625C8.05 5.004 8.5652 4.5 9.2 4.5ZM4.6253 14.625H18.4C18.8738 14.625 19.1441 14.0963 18.86 13.725L14.827 8.46562C14.5992 8.16862 14.145 8.16413 13.9127 8.45775L10.35 12.9487L7.93155 10.1014C7.69695 9.82463 7.2611 9.83138 7.0357 10.1149L4.1722 13.7171C3.8778 14.0861 4.1469 14.625 4.6253 14.625Z"/>
</svg>
