<svg width="9" height="10" viewBox="0 0 9 10" xmlns="http://www.w3.org/2000/svg">
<path fill-rule="evenodd" clip-rule="evenodd" d="M7.65995 0C7.317 0 6.97406 0.145116 6.71225 0.436005L6.15696 1.05299L8.05236 3.15898L8.60765 2.54199C9.13078 1.96074 9.13078 1.01778 8.60765 0.436005C8.34585 0.145116 8.0029 0 7.65995 0ZM5.44619 1.84274L0.944612 6.84445C0.944612 6.84445 1.42083 6.84708 1.65539 7.1077C1.88994 7.36832 1.88491 7.88922 1.88491 7.88922C1.88491 7.88922 2.36806 7.89955 2.60309 8.16069C2.83812 8.42183 2.84001 8.95044 2.84001 8.95044L7.34159 3.94872L5.44619 1.84274ZM0.00339103 9.74224L0.314355 7.89745L1.89231 9.65072L0.231987 9.99623C0.0964655 10.0241 -0.021723 9.89282 0.00339103 9.74224Z"/>
</svg>
