<svg width="20" height="20" viewBox="0 0 20 20" xmlns="http://www.w3.org/2000/svg">
<path fill-rule="evenodd" clip-rule="evenodd" d="M8 0C6.70684 0 5.60486 0.84267 5.1875 2H0V4H5.1875C5.60486 5.15733 6.70684 6 8 6C9.64501 6 11 4.64501 11 3C11 1.35499 9.64501 0 8 0ZM8 2C8.56413 2 9 2.43587 9 3C9 3.56413 8.56413 4 8 4C7.43587 4 7 3.56413 7 3C7 2.43587 7.43587 2 8 2ZM20 4H13V2H20V4ZM13 7C11.7068 7 10.6049 7.84267 10.1875 9H0V11H10.1875C10.6049 12.1573 11.7068 13 13 13C14.645 13 16 11.645 16 10C16 8.35499 14.645 7 13 7ZM14 10C14 9.43587 13.5641 9 13 9C12.4359 9 12 9.43587 12 10C12 10.5641 12.4359 11 13 11C13.5641 11 14 10.5641 14 10ZM18 11H20V9H18V11ZM2.1875 16C2.60486 14.8427 3.70684 14 5 14C6.64501 14 8 15.355 8 17C8 18.645 6.64501 20 5 20C3.70684 20 2.60486 19.1573 2.1875 18H0V16H2.1875ZM5 16C5.56413 16 6 16.4359 6 17C6 17.5641 5.56413 18 5 18C4.43587 18 4 17.5641 4 17C4 16.4359 4.43587 16 5 16ZM20 18H10V16H20V18Z"/>
</svg>
