<svg width="30" height="29" viewBox="0 0 30 29" xmlns="http://www.w3.org/2000/svg">
<path fill-rule="evenodd" clip-rule="evenodd" d="M10.5002 0C8.03276 0 6.00035 2.06814 6.00035 4.57895C6.00035 5.11598 6.11126 5.62464 6.28159 6.10526H3.18796C1.58902 6.10526 0.135369 7.2925 0.00937387 8.91345C-0.0851224 10.1437 0.543564 11.2194 1.50053 11.7872V25.9474C1.50053 27.6263 2.85047 29 4.50041 29H13.5001V13.7368C13.5001 12.8943 14.172 12.2105 15 12.2105C15.828 12.2105 16.4999 12.8943 16.4999 13.7368V29H25.4996C27.1495 29 28.4995 27.6263 28.4995 25.9474V11.7872C29.4564 11.2194 30.0851 10.1437 29.9906 8.91345C29.8646 7.2925 28.411 6.10526 26.812 6.10526H23.7184C23.8887 5.62464 23.9996 5.11598 23.9996 4.57895C23.9996 2.06814 21.9672 0 19.4998 0C18.347 0 17.2999 0.464199 16.4999 1.20138V1.16859L16.3242 1.34745L15 2.6949L13.6758 1.34745L13.5001 1.16859V1.20138C12.7001 0.464199 11.653 0 10.5002 0ZM10.5002 3.05263C11.3463 3.05263 12.0001 3.71791 12.0001 4.57895C12.0001 5.43999 11.3463 6.10526 10.5002 6.10526C9.65401 6.10526 9.00023 5.43999 9.00023 4.57895C9.00023 3.71791 9.65401 3.05263 10.5002 3.05263ZM20.9998 4.57895C20.9998 3.71791 20.346 3.05263 19.4998 3.05263C18.6537 3.05263 17.9999 3.71791 17.9999 4.57895C17.9999 5.43999 18.6537 6.10526 19.4998 6.10526C20.346 6.10526 20.9998 5.43999 20.9998 4.57895Z"/>
</svg>
