<svg width="35" height="32" viewBox="0 0 35 32" xmlns="http://www.w3.org/2000/svg">
<path fill-rule="evenodd" clip-rule="evenodd" d="M0 3.2C0 1.432 1.42386 0 3.18182 0H28.6364C30.3943 0 31.8182 1.432 31.8182 3.2V14.0781C31.8182 14.6797 31.0737 14.9623 30.6871 14.5031C29.8106 13.4615 28.5043 12.8 27.0455 12.8C25.2652 12.8 23.7275 13.7971 22.9066 15.2531L20.5109 12.0406C20.1959 11.6182 19.5676 11.6105 19.2463 12.0281L14.3182 18.4156L10.9717 14.3656C10.6487 13.9736 10.0437 13.9812 9.73189 14.3844L5.77326 19.5094C5.36599 20.0342 5.736 20.8 6.39782 20.8H15.6325C16.2339 20.8 16.6268 21.4294 16.3659 21.975C16.0747 22.5894 15.9091 23.2736 15.9091 24C15.9091 24.5632 16.023 25.0976 16.2012 25.6H3.18182C1.42386 25.6 0 24.168 0 22.4V3.2ZM25.4545 17.6C25.4545 16.7168 26.1673 16 27.0455 16C27.9236 16 28.6364 16.7168 28.6364 17.6V22.4H33.4091C34.2873 22.4 35 23.1168 35 24C35 24.8832 34.2873 25.6 33.4091 25.6H28.6364V30.4C28.6364 31.2832 27.9236 32 27.0455 32C26.1673 32 25.4545 31.2832 25.4545 30.4V25.6H20.6818C19.8036 25.6 19.0909 24.8832 19.0909 24C19.0909 23.1168 19.8036 22.4 20.6818 22.4H25.4545V17.6Z"/>
</svg>
