<svg width="22" height="16" viewBox="0 0 22 16" xmlns="http://www.w3.org/2000/svg">
<path fill-rule="evenodd" clip-rule="evenodd" d="M1.6003 0.426327C1.22365 0.421072 0.873308 0.616313 0.683426 0.93729C0.493545 1.25827 0.493545 1.65525 0.683426 1.97623C0.873308 2.2972 1.22365 2.49244 1.6003 2.48719H20.3998C20.7764 2.49244 21.1268 2.2972 21.3166 1.97623C21.5065 1.65525 21.5065 1.25827 21.3166 0.93729C21.1268 0.616313 20.7764 0.421072 20.3998 0.426327H1.6003ZM8.81342 6.60891C8.43677 6.60365 8.08642 6.79889 7.89654 7.11987C7.70666 7.44085 7.70666 7.83783 7.89654 8.15881C8.08642 8.47978 8.43677 8.67502 8.81342 8.66977H20.3998C20.7764 8.67502 21.1268 8.47978 21.3166 8.15881C21.5065 7.83783 21.5065 7.44085 21.3166 7.11987C21.1268 6.79889 20.7764 6.60365 20.3998 6.60891H8.81342ZM0.683426 13.3025C0.873308 12.9815 1.22365 12.7862 1.6003 12.7915H20.3998C20.7764 12.7862 21.1268 12.9815 21.3166 13.3025C21.5065 13.6234 21.5065 14.0204 21.3166 14.3414C21.1268 14.6624 20.7764 14.8576 20.3998 14.8523H1.6003C1.22365 14.8576 0.873308 14.6624 0.683426 14.3414C0.493545 14.0204 0.493545 13.6234 0.683426 13.3025Z"/>
</svg>
