<svg width="15" height="16" viewBox="0 0 15 16" xmlns="http://www.w3.org/2000/svg">
<path fill-rule="evenodd" clip-rule="evenodd" d="M14.0502 0.508481C14.081 0.504044 14.1119 0.501328 14.143 0.500348C14.3879 0.493276 14.6235 0.594396 14.7871 0.776795C14.9507 0.959195 15.0257 1.20437 14.9921 1.44708V5.50565C14.9964 5.80601 14.8386 6.08539 14.5791 6.23681C14.3197 6.38823 13.9988 6.38823 13.7394 6.23681C13.4799 6.08539 13.3221 5.80601 13.3263 5.50565V3.35192L5.58626 11.0917C5.37736 11.3093 5.06715 11.3969 4.77527 11.3208C4.48339 11.2447 4.25545 11.0168 4.17935 10.7249C4.10326 10.4331 4.19091 10.1229 4.4085 9.91397L12.1486 2.17421H9.99476C9.69439 2.17845 9.415 2.02065 9.26357 1.76121C9.11214 1.50178 9.11214 1.18091 9.26357 0.921475C9.415 0.66204 9.69439 0.504233 9.99476 0.508481H14.0502ZM0 2.17421C0 1.26383 0.755385 0.508481 1.66579 0.508481H6.66317C6.96354 0.504233 7.24294 0.66204 7.39436 0.921475C7.54579 1.18091 7.54579 1.50178 7.39436 1.76121C7.24294 2.02065 6.96354 2.17845 6.66317 2.17421H1.66579V13.8343H13.3263V8.8371C13.3221 8.53674 13.4799 8.25736 13.7394 8.10594C13.9988 7.95452 14.3197 7.95452 14.5791 8.10594C14.8386 8.25736 14.9964 8.53674 14.9921 8.8371V13.8343C14.9921 14.7446 14.2368 15.5 13.3263 15.5H1.66579C0.755385 15.5 0 14.7446 0 13.8343V2.17421Z"/>
</svg>
