<svg width="32" height="28" viewBox="0 0 32 28" xmlns="http://www.w3.org/2000/svg">
<path fill-rule="evenodd" clip-rule="evenodd" d="M6.4 0C4.63269 0 3.2 1.39289 3.2 3.11111C3.2 4.82933 4.63269 6.22222 6.4 6.22222C8.16731 6.22222 9.6 4.82933 9.6 3.11111C9.6 1.39289 8.16731 0 6.4 0ZM25.6 0C23.8327 0 22.4 1.39289 22.4 3.11111C22.4 4.82933 23.8327 6.22222 25.6 6.22222C27.3673 6.22222 28.8 4.82933 28.8 3.11111C28.8 1.39289 27.3673 0 25.6 0ZM12.8 9.33333C12.8 7.61511 14.2327 6.22222 16 6.22222C17.7673 6.22222 19.2 7.61511 19.2 9.33333C19.2 11.0516 17.7673 12.4444 16 12.4444C14.2327 12.4444 12.8 11.0516 12.8 9.33333ZM6.4 12.4444C4.63269 12.4444 3.2 13.8373 3.2 15.5556C3.2 17.2738 4.63269 18.6667 6.4 18.6667C8.16731 18.6667 9.6 17.2738 9.6 15.5556C9.6 13.8373 8.16731 12.4444 6.4 12.4444ZM22.4 15.5556C22.4 13.8373 23.8327 12.4444 25.6 12.4444C27.3673 12.4444 28.8 13.8373 28.8 15.5556C28.8 17.2738 27.3673 18.6667 25.6 18.6667C23.8327 18.6667 22.4 17.2738 22.4 15.5556ZM6.4 21.7778C4.264 21.7778 0 22.899 0 24.9679V26.4444C0 27.3031 0.7168 28 1.6 28H11.2C12.0832 28 12.8 27.3031 12.8 26.4444V24.9679C12.8 22.899 8.536 21.7778 6.4 21.7778ZM19.2 24.9679C19.2 22.899 23.464 21.7778 25.6 21.7778C27.736 21.7778 32 22.899 32 24.9679V26.4444C32 27.3031 31.2832 28 30.4 28H20.8C19.9168 28 19.2 27.3031 19.2 26.4444V24.9679Z"/>
</svg>
