<svg width="30" height="23" viewBox="0 0 30 23" xmlns="http://www.w3.org/2000/svg">
<path fill-rule="evenodd" clip-rule="evenodd" d="M15.0023 0C5.65183 0 1.21209 8.45055 0.13498 10.8627C-0.0449933 11.2652 -0.0449933 11.732 0.13498 12.1345C1.21209 14.5481 5.65183 23 15.0023 23C24.32 23 28.7627 14.6092 29.8589 12.1626C30.047 11.7414 30.047 11.2586 29.8589 10.8374C28.7627 8.39078 24.32 0 15.0023 0ZM15.0023 4.3125C18.7667 4.3125 21.8194 7.53106 21.8194 11.5C21.8194 15.4689 18.7667 18.6875 15.0023 18.6875C11.2378 18.6875 8.18509 15.4689 8.18509 11.5C8.18509 7.53106 11.2378 4.3125 15.0023 4.3125ZM10.912 11.5C10.912 9.11827 12.7432 7.1875 15.0023 7.1875C17.2613 7.1875 19.0926 9.11827 19.0926 11.5C19.0926 13.8817 17.2613 15.8125 15.0023 15.8125C12.7432 15.8125 10.912 13.8817 10.912 11.5Z" />
</svg>
