<svg width="26" height="26" viewBox="0 0 26 26" xmlns="http://www.w3.org/2000/svg">
<path fill-rule="evenodd" clip-rule="evenodd" d="M14.3 0C13.6877 0 13.1764 0.468102 13.127 1.0791L13.1067 1.32539C13.1047 1.34934 13.1094 1.37146 13.1141 1.39365C13.1178 1.41117 13.1215 1.42873 13.1219 1.44727C12.1032 1.68417 11.2055 2.21745 10.5143 2.95547C10.4982 2.94565 10.4847 2.93322 10.4712 2.9208L10.4712 2.9208C10.4542 2.90519 10.4372 2.88961 10.4153 2.8793L10.1944 2.7752C9.64057 2.5139 8.97773 2.7196 8.67093 3.25C8.36412 3.7804 8.51568 4.45551 9.01878 4.80391L9.2219 4.94609C9.24407 4.96144 9.26812 4.96958 9.29225 4.97774C9.3105 4.9839 9.32878 4.99009 9.34632 4.99941C9.20142 5.47744 9.10003 5.97469 9.10003 6.5C9.10003 7.02531 9.20142 7.52256 9.34632 8.00059C9.32879 8.0099 9.31051 8.01608 9.29228 8.02225C9.26814 8.03041 9.24407 8.03855 9.2219 8.05391L9.01878 8.19355C8.51568 8.54325 8.36412 9.2196 8.67093 9.75C8.97773 10.2804 9.64057 10.4861 10.1944 10.2248L10.4153 10.1207C10.4372 10.1104 10.4542 10.0948 10.4712 10.0792L10.4712 10.0792C10.4847 10.0668 10.4982 10.0543 10.5143 10.0445C11.2049 10.782 12.1016 11.3156 13.1194 11.5527C13.1189 11.5712 13.1152 11.5888 13.1115 11.6063C13.1069 11.6285 13.1022 11.6506 13.1041 11.6746L13.127 11.9209C13.1777 12.5319 13.6877 13 14.3 13C14.9123 13 15.4237 12.5319 15.4731 11.9209L15.4934 11.6746C15.4954 11.6507 15.4907 11.6285 15.486 11.6064C15.4823 11.5888 15.4786 11.5713 15.4782 11.5527C16.4969 11.3158 17.3946 10.7825 18.0858 10.0445C18.1019 10.0544 18.1154 10.0668 18.1289 10.0792C18.1459 10.0948 18.1628 10.1103 18.1848 10.1207L18.4057 10.2273C18.9595 10.4886 19.6224 10.2829 19.9292 9.75254C20.236 9.22214 20.0844 8.54579 19.5813 8.19609L19.3782 8.05391C19.356 8.03856 19.332 8.03042 19.3078 8.02226C19.2896 8.0161 19.2713 8.00991 19.2538 8.00059C19.3987 7.52256 19.5001 7.02531 19.5001 6.5C19.5001 5.97469 19.3987 5.47744 19.2538 4.99941C19.2713 4.9901 19.2896 4.98391 19.3078 4.97775C19.332 4.96959 19.356 4.96145 19.3782 4.94609L19.5813 4.80645C20.0844 4.45675 20.236 3.7804 19.9292 3.25C19.6224 2.7196 18.9595 2.5139 18.4057 2.7752L18.1848 2.8793C18.1629 2.88963 18.1459 2.90522 18.1289 2.92082C18.1154 2.93324 18.1018 2.94566 18.0858 2.95547C17.3952 2.21803 16.4985 1.68445 15.4807 1.44727C15.4812 1.42875 15.4849 1.4112 15.4886 1.39369C15.4932 1.3715 15.4979 1.34936 15.4959 1.32539L15.4731 1.0791C15.4224 0.468102 14.9123 0 14.3 0ZM14.3 4.55C15.3764 4.55 16.2501 5.4236 16.2501 6.5C16.2501 7.5764 15.3764 8.45 14.3 8.45C13.2236 8.45 12.35 7.5764 12.35 6.5C12.35 5.4236 13.2236 4.55 14.3 4.55ZM22.8618 13.5383C23.2206 13.1795 23.6912 13 24.1618 13C24.6324 13 25.103 13.1795 25.4618 13.5383C26.1794 14.2559 26.1794 15.4207 25.4618 16.1383L18.9618 22.6383C18.4743 23.1258 17.8125 23.4 17.1235 23.4H7.80002L5.20002 26L0 20.8L4.97912 15.8234C5.95412 14.8484 7.27515 14.3 8.65315 14.3H14.95C16.0226 14.3 16.9001 15.1775 16.9001 16.25C16.9001 17.3225 16.0226 18.2 14.95 18.2H11.7C11.3412 18.2 11.05 18.4912 11.05 18.85C11.05 19.2088 11.3412 19.5 11.7 19.5H16.9001L22.8618 13.5383Z"/>
</svg>
