<svg width="26" height="26" viewBox="0 0 26 26" xmlns="http://www.w3.org/2000/svg">
<path fill-rule="evenodd" clip-rule="evenodd" d="M20.1929 0.764808L25.2109 0.00785608C25.6686 -0.0608601 26.0609 0.331316 25.9921 0.788966L25.235 5.80578C25.1512 6.36376 24.4684 6.58818 24.0698 6.18963L22.91 5.03273L17.7551 10.1864C17.2301 10.7101 16.3844 10.7232 15.8435 10.216L14.6272 9.07517L9.93148 13.8853C9.67469 14.1477 9.3236 14.2964 8.95644 14.2984C8.58929 14.3005 8.23658 14.1556 7.97692 13.896L6.87614 12.7955L2.35489 17.2272C2.00634 17.5814 1.49369 17.72 1.01408 17.5896C0.534467 17.4592 0.162596 17.0802 0.0414782 16.5982C-0.0796396 16.1163 0.068858 15.6065 0.429862 15.265L5.92571 9.88044C6.46423 9.35402 7.32615 9.35881 7.85879 9.89118L8.93809 10.9702L13.6016 6.19231C14.1242 5.65786 14.9781 5.63878 15.524 6.14936L16.7536 7.3009L20.9661 3.08935L19.809 1.92976C19.4103 1.53121 19.6348 0.848642 20.1929 0.764808ZM22.0079 12.2372C21.9975 11.4792 22.6029 10.8559 23.361 10.8441C23.7326 10.8383 24.0906 10.9831 24.3537 11.2455C24.6167 11.508 24.7622 11.8657 24.7571 12.2372V24.6061C24.7641 25.1017 24.5037 25.5627 24.0755 25.8126C23.6473 26.0625 23.1177 26.0625 22.6895 25.8126C22.2613 25.5627 22.0008 25.1017 22.0079 24.6061V12.2372ZM17.8625 13.5927C17.1043 13.6046 16.4989 14.2279 16.5093 14.9858V24.6061C16.5023 25.1017 16.7628 25.5627 17.191 25.8126C17.6192 26.0625 18.1487 26.0625 18.5769 25.8126C19.0051 25.5627 19.2656 25.1017 19.2586 24.6061V14.9858C19.2637 14.6144 19.1181 14.2566 18.8551 13.9942C18.5921 13.7317 18.234 13.5869 17.8625 13.5927ZM11.0108 17.7345C11.0004 16.9765 11.6058 16.3532 12.3639 16.3414C12.7355 16.3356 13.0936 16.4804 13.3566 16.7428C13.6196 17.0053 13.7651 17.363 13.76 17.7345V24.6061C13.7671 25.1017 13.5066 25.5627 13.0784 25.8126C12.6502 26.0625 12.1206 26.0625 11.6924 25.8126C11.2642 25.5627 11.0038 25.1017 11.0108 24.6061V17.7345ZM6.8654 19.09C6.10727 19.1019 5.50186 19.7251 5.51225 20.4831V24.6061C5.50524 25.1017 5.7657 25.5627 6.19389 25.8126C6.62209 26.0625 7.15168 26.0625 7.57987 25.8126C8.00807 25.5627 8.26853 25.1017 8.26151 24.6061V20.4831C8.2666 20.1117 8.12106 19.7539 7.85805 19.4915C7.59503 19.229 7.23696 19.0842 6.8654 19.09ZM0.0137126 23.2318C0.0033304 22.4738 0.608735 21.8505 1.36687 21.8387C1.73842 21.8329 2.0965 21.9777 2.35951 22.2401C2.62252 22.5026 2.76807 22.8603 2.76298 23.2318V24.6061C2.76999 25.1017 2.50953 25.5627 2.08134 25.8126C1.65314 26.0625 1.12355 26.0625 0.695356 25.8126C0.267161 25.5627 0.00670159 25.1017 0.0137126 24.6061V23.2318Z"/>
</svg>
