<svg width="27" height="30" viewBox="0 0 27 30" xmlns="http://www.w3.org/2000/svg">
<path fill-rule="evenodd" clip-rule="evenodd" d="M7.95034 2.6087C8.48133 1.09174 9.89486 0 11.5714 0C13.248 0 14.6615 1.09174 15.1925 2.6087H20.5714C21.9921 2.6087 23.1429 3.77609 23.1429 5.21739V14.7325C22.7263 14.6073 22.2969 14.5099 21.8571 14.4446V14.4523C21.4367 14.391 21.0086 14.3478 20.5714 14.3478C15.6009 14.3478 11.5714 18.4357 11.5714 23.4783C11.5714 23.9217 11.614 24.3561 11.6744 24.7826H11.6669C11.7299 25.2287 11.8259 25.6643 11.9506 26.087H2.57143C1.15071 26.087 0 24.9196 0 23.4783V5.21739C0 3.77609 1.15071 2.6087 2.57143 2.6087H7.95034ZM12.8571 3.91304C12.8571 3.19304 12.2811 2.6087 11.5714 2.6087C10.8617 2.6087 10.2857 3.19304 10.2857 3.91304C10.2857 4.63304 10.8617 5.21739 11.5714 5.21739C12.2811 5.21739 12.8571 4.63304 12.8571 3.91304ZM20.5714 16.9565C17.0216 16.9565 14.1429 19.877 14.1429 23.4783C14.1429 27.0796 17.0216 30 20.5714 30C24.1213 30 27 27.0796 27 23.4783C27 19.877 24.1213 16.9565 20.5714 16.9565ZM21.8571 20.8696C21.8571 20.1496 21.2811 19.5652 20.5714 19.5652C19.8617 19.5652 19.2857 20.1496 19.2857 20.8696V22.1739H18C17.2903 22.1739 16.7143 22.7583 16.7143 23.4783C16.7143 24.1983 17.2903 24.7826 18 24.7826H19.2857V26.087C19.2857 26.807 19.8617 27.3913 20.5714 27.3913C21.2811 27.3913 21.8571 26.807 21.8571 26.087V24.7826H23.1429C23.8526 24.7826 24.4286 24.1983 24.4286 23.4783C24.4286 22.7583 23.8526 22.1739 23.1429 22.1739H21.8571V20.8696Z"/>
</svg>
