<svg width="32" height="31" viewBox="0 0 32 31" xmlns="http://www.w3.org/2000/svg">
<path fill-rule="evenodd" clip-rule="evenodd" d="M25.5443 0C24.8312 0 24.1798 0.392062 23.8598 1.0091L22.8568 2.95234L13.1129 6.9974C12.5522 7.23063 12.1903 7.76201 12.1903 8.35247V18.2157C12.1903 18.8062 12.5522 19.3419 13.1129 19.5737L18.3212 21.7966C18.3425 21.5353 18.3821 21.2777 18.4492 21.0268C18.4496 21.0256 18.4501 21.0245 18.4506 21.0233C18.451 21.0225 18.4514 21.0216 18.4518 21.0208C18.453 21.0183 18.4543 21.0156 18.4551 21.0124C18.5206 20.7718 18.6 20.5376 18.7051 20.3118C18.721 20.2766 18.7403 20.2439 18.7596 20.211C18.7736 20.1873 18.7876 20.1635 18.8003 20.1388L18.837 20.0692L18.837 20.0691C18.9142 19.9222 18.9917 19.7748 19.089 19.6371C19.2445 19.4142 19.4236 19.2034 19.6247 19.0086C19.8411 18.799 20.0728 18.6159 20.3212 18.455C20.8179 18.1332 21.3714 17.9098 21.958 17.7977C22.2506 17.7445 22.5521 17.714 22.8568 17.714C24.0774 17.714 25.2265 18.1745 26.0889 19.0115L26.6663 19.5708L27.2437 19.0115C27.2765 18.9797 27.3123 18.9533 27.3479 18.927C27.3752 18.9069 27.4024 18.8868 27.4282 18.8644V15.8371C28.3695 15.3107 28.9501 14.3384 28.952 13.2855C28.9511 12.2316 28.3704 11.258 27.4282 10.7311V8.85702V1.82503C27.4282 0.816807 26.585 0 25.5443 0ZM3.04758 7.38085C1.37141 7.38085 0 8.70941 0 10.3332V16.2379C0 17.8617 1.37141 19.1902 3.04758 19.1902H6.09516V25.0949C6.09516 25.9097 6.77781 26.5711 7.61895 26.5711C8.46008 26.5711 9.14273 25.9097 9.14273 25.0949V16.2379V8.85702C9.14273 8.04218 8.46008 7.38085 7.61895 7.38085H3.04758ZM21.7795 21.0989C22.0774 20.8103 22.4669 20.6664 22.8568 20.6664C23.2467 20.6664 23.6371 20.8103 23.9342 21.0989L26.6663 23.7456L29.3984 21.0989C29.9927 20.5217 30.9589 20.5217 31.5532 21.0989C32.149 21.676 32.149 22.6106 31.5532 23.1863L28.821 25.833L31.5204 28.448C32.1162 29.0252 32.1162 29.9597 31.5204 30.5354C30.9246 31.1126 29.96 31.1126 29.3657 30.5354L26.6663 27.9204L23.9342 30.5671C23.3384 31.1443 22.3737 31.1443 21.7795 30.5671C21.1837 29.9899 21.1837 29.0554 21.7795 28.4797L24.5116 25.833L21.7795 23.1863C21.1837 22.6091 21.1837 21.6746 21.7795 21.0989Z"/>
</svg>
