<svg width="19" height="15" viewBox="0 0 19 15" xmlns="http://www.w3.org/2000/svg">
<path d="M11.837 0C11.5616 0 11.286 0.112006 11.0762 0.332251L10.9837 0.429065C10.5629 0.869555 10.5629 1.58274 10.9837 2.02211L15.1409 6.37437H1.07609C0.482088 6.37437 0 6.87907 0 7.50094C0 8.12281 0.482088 8.62751 1.07609 8.62751H15.1409L10.9837 12.9798C10.5629 13.4203 10.5629 14.1335 10.9837 14.5728L11.0762 14.6696C11.4969 15.1101 12.1781 15.1101 12.5978 14.6696L18.6844 8.29746C19.1052 7.85697 19.1052 7.14378 18.6844 6.70442L12.5978 0.332251C12.3874 0.112006 12.1123 0 11.837 0Z"/>
</svg>
