<svg width="26" height="25" viewBox="0 0 26 25" xmlns="http://www.w3.org/2000/svg">
<path fill-rule="evenodd" clip-rule="evenodd" d="M6.5 22.335C6.5 23.8007 7.67 25 9.1 25H19.5C20.54 25 21.32 24.467 21.71 23.5342L25.61 14.4732C25.87 13.9402 26 13.4072 26 12.8742V11.675C26 10.2092 24.83 9.00998 23.4 9.00998H14.3C14.3 9.00998 15.6 5.81198 15.6 3.54673C15.6 1.41472 14.3 0.348722 13.13 0.0822213C12.48 -0.184279 11.57 0.215471 11.44 1.01497L10.66 4.34623L7.15 8.34373C6.76 8.74348 6.5 9.40973 6.5 10.076V22.335ZM3.9 11.0087C3.9 9.94273 2.99 9.00998 1.95 9.00998C0.91 9.00998 0 9.94273 0 11.0087V23.0012C0 24.0672 0.91 25 1.95 25C2.99 25 3.9 24.0672 3.9 23.0012V11.0087Z"/>
</svg>
