<svg width="14" height="16" viewBox="0 0 14 16" xmlns="http://www.w3.org/2000/svg">
<path d="M11.6667 0C10.378 0 9.33333 1.07452 9.33333 2.4C9.33381 2.55052 9.34805 2.70066 9.37587 2.84844L3.8418 6.16875C3.42029 5.80148 2.88576 5.59994 2.33333 5.6C1.04467 5.6 0 6.67452 0 8C0 9.32548 1.04467 10.4 2.33333 10.4C2.8849 10.3989 3.41826 10.1968 3.83876 9.82969L9.37587 13.1516C9.34805 13.2993 9.33381 13.4495 9.33333 13.6C9.33333 14.9255 10.378 16 11.6667 16C12.9553 16 14 14.9255 14 13.6C14 12.2745 12.9553 11.2 11.6667 11.2C11.1146 11.2007 10.5806 11.4028 10.1597 11.7703L4.62413 8.44844C4.65195 8.30066 4.66619 8.15052 4.66667 8C4.66619 7.84948 4.65195 7.69934 4.62413 7.55156L10.1582 4.23125C10.5797 4.59852 11.1142 4.80006 11.6667 4.8C12.9553 4.8 14 3.72548 14 2.4C14 1.07452 12.9553 0 11.6667 0Z"/>
</svg>
