<svg width="17" height="17" viewBox="0 0 17 17" xmlns="http://www.w3.org/2000/svg">
<path fill-rule="evenodd" clip-rule="evenodd" d="M0 5.95002C0 2.67398 2.67398 0 5.95002 0C9.22606 0 11.9 2.67398 11.9 5.95002C11.9 7.43582 11.3459 8.79329 10.4391 9.83812L10.801 10.2H11.9L16.6481 14.9481C17.1173 15.4173 17.1173 16.1789 16.6481 16.6481C16.1789 17.1173 15.4173 17.1173 14.9481 16.6481L10.2 11.9V10.801L9.83812 10.4391C8.79329 11.3459 7.43582 11.9 5.95002 11.9C2.67398 11.9 0 9.22606 0 5.95002ZM10.2 5.95002C10.2 3.59273 8.3073 1.70001 5.95002 1.70001C3.59273 1.70001 1.70001 3.59273 1.70001 5.95002C1.70001 8.3073 3.59273 10.2 5.95002 10.2C8.3073 10.2 10.2 8.3073 10.2 5.95002Z"/>
</svg>
