<svg width="24" height="28" viewBox="0 0 24 28" xmlns="http://www.w3.org/2000/svg">
<path fill-rule="evenodd" clip-rule="evenodd" d="M1.02614 0C0.26388 0 -0.231591 0.768189 0.109962 1.41923L5.0917 10.9355C3.04239 12.7108 1.75224 15.2719 1.73905 18.1547C1.71413 23.4386 6.31914 27.9276 11.8514 27.999C17.6373 28.0746 22.2615 23.7091 22.2615 18.2011C22.2615 15.2988 20.9699 12.7206 18.9089 10.9355L23.8906 1.41923C24.2307 0.768189 23.7367 0 22.9744 0H17.3027C16.7471 0 16.242 0.299247 15.9943 0.773877L12.0003 8.40053L8.00631 0.773877C7.75857 0.299247 7.25346 0 6.69789 0H1.02614ZM12.0003 11.2007C16.1048 11.2007 19.3298 14.2809 19.3298 18.2011C19.3298 22.1214 16.1048 25.2016 12.0003 25.2016C7.8958 25.2016 4.67083 22.1214 4.67083 18.2011C4.67083 14.2809 7.8958 11.2007 12.0003 11.2007ZM9.80146 15.6799C11.1208 15.6799 11.8537 14.4209 12.0003 14.0009H13.4662V22.4014H13.3202H11.4134V17.08H9.80146V15.6799Z"/>
</svg>
