<svg width="27" height="26" viewBox="0 0 27 26" xmlns="http://www.w3.org/2000/svg">
<path fill-rule="evenodd" clip-rule="evenodd" d="M2.31579 10.4C2.31579 4.67163 7.04416 0 12.8421 0C18.64 0 23.3684 4.67163 23.3684 10.4V11.7V13C24.8158 13 26 14.17 26 15.6V18.2C26 19.63 24.8158 20.8 23.3684 20.8H22.0526H13.5C13.4528 20.8 13.4056 20.7974 13.3587 20.7924C12.3271 20.7192 11.5277 19.8718 11.5263 18.85C11.5263 18.3328 11.7343 17.8368 12.1044 17.4711C12.4745 17.1054 12.9765 16.9 13.5 16.9C14.3354 16.9012 15.0796 17.4218 15.358 18.2H20.7368V13V11.7C20.7368 10.9655 20.1645 10.4 19.4211 10.4H6.26316C5.5197 10.4 4.94737 10.9655 4.94737 11.7V13V14.107L4.2869 14.4803C3.88738 14.7069 3.63158 15.0995 3.63158 15.6C3.63158 16.2697 4.11688 16.7865 4.76491 16.8746L5.53588 16.9813L5.816 17.6973C7.17231 21.1894 9.87046 23.4 12.8421 23.4H16.7895V26H12.8421C8.69768 26 5.26894 23.04 3.55705 18.9973C2.12836 18.4118 1 17.2146 1 15.6C1 14.4991 1.56091 13.5842 2.31579 12.873V11.7V10.4ZM20.3231 7.91426C19.2771 4.81959 16.3363 2.6 12.8421 2.6C9.34791 2.6 6.40708 4.81959 5.36112 7.91426C5.65238 7.84555 5.95197 7.8 6.26316 7.8H19.4211C19.7322 7.8 20.0318 7.84555 20.3231 7.91426Z"/>
</svg>
