<svg width="14" height="14" viewBox="0 0 14 14" mlns="http://www.w3.org/2000/svg">
<path fill-rule="evenodd" clip-rule="evenodd" d="M1.4 0C0.6265 0 0 0.6265 0 1.4V10.5C0 10.8864 0.3136 11.2 0.7 11.2C1.0864 11.2 1.4 10.8864 1.4 10.5V1.4H10.5C10.8864 1.4 11.2 1.0864 11.2 0.7C11.2 0.3136 10.8864 0 10.5 0H1.4ZM4.2 2.8C3.4265 2.8 2.8 3.4265 2.8 4.2V12.6C2.8 13.3735 3.4265 14 4.2 14H12.6C13.3735 14 14 13.3735 14 12.6V4.2C14 3.4265 13.3735 2.8 12.6 2.8H4.2ZM11.9848 4.81523C11.5753 4.40573 11.0376 4.20137 10.5 4.20137C9.9624 4.20137 9.42473 4.40573 9.01523 4.81523L8.1252 5.70527C7.8515 5.97897 7.8515 6.42142 8.1252 6.69512C8.3989 6.96882 8.84134 6.96882 9.11504 6.69512L10.0051 5.80508C10.2788 5.53208 10.7212 5.53138 10.9949 5.80508C11.1272 5.93738 11.2 6.1131 11.2 6.3C11.2 6.4869 11.1272 6.66192 10.9949 6.79492L10.1254 7.66582C9.85169 7.93952 9.85169 8.38196 10.1254 8.65566C10.2619 8.79216 10.4411 8.86074 10.6203 8.86074C10.7995 8.86074 10.9787 8.79216 11.1152 8.65566L11.9848 7.78477C12.3817 7.38787 12.6 6.8607 12.6 6.3C12.6 5.7393 12.3817 5.21143 11.9848 4.81523ZM8.66113 7.43887C8.84016 7.43887 9.01921 7.5071 9.15605 7.64395C9.42976 7.91765 9.42976 8.36009 9.15605 8.63379L8.63242 9.15605C8.49592 9.29255 8.31807 9.36113 8.13887 9.36113C7.95967 9.36113 7.78045 9.29255 7.64395 9.15605C7.37025 8.88235 7.37025 8.44128 7.64395 8.16758L8.16621 7.64395C8.30306 7.5071 8.48211 7.43887 8.66113 7.43887ZM6.68965 8.13066C6.5528 7.99381 6.37375 7.92559 6.19473 7.92559C6.0157 7.92559 5.83665 7.99381 5.6998 8.13066L4.81523 9.01523C4.41903 9.41213 4.2 9.9393 4.2 10.5C4.2 11.0607 4.41903 11.5886 4.81523 11.9848C5.21143 12.3817 5.7393 12.6 6.3 12.6C6.8607 12.6 7.38857 12.3817 7.78477 11.9848L8.66934 11.1002C8.94234 10.8272 8.94304 10.3841 8.66934 10.1104C8.39564 9.83665 7.95319 9.83665 7.67949 10.1104L6.79492 10.9949C6.52962 11.2595 6.07038 11.2602 5.80508 10.9949C5.67278 10.8626 5.6 10.6869 5.6 10.5C5.6 10.3131 5.67278 10.1374 5.80508 10.0051L6.68965 9.12051C6.96335 8.84681 6.96335 8.40436 6.68965 8.13066Z"/>
</svg>
