<svg width="13" height="12" viewBox="0 0 13 12" xmlns="http://www.w3.org/2000/svg">
<path fill-rule="evenodd" clip-rule="evenodd" d="M11.8243 0.0935647C12.1845 -0.0531357 12.5328 -0.0258356 12.7545 0.164965C12.9136 0.301465 13.078 0.579266 12.9597 1.12527L11.0213 11.3484C11.005 11.391 10.8495 11.7669 10.4607 11.9289C10.3466 11.9763 10.2271 12 10.1027 12C9.94152 12 9.77269 11.9604 9.59647 11.8812L9.53468 11.8437L6.93959 9.79019L5.33204 11.3031C5.18893 11.4171 4.96777 11.4966 4.74543 11.4096C4.49204 11.3313 4.34746 10.9509 4.25876 10.6614C4.12748 10.2327 3.56944 8.34752 3.34716 7.5966C3.32863 7.53402 3.31244 7.47931 3.29902 7.43399L0.669634 6.52048C0.603995 6.49618 0.066469 6.28558 0.00496986 5.77708C-0.063921 5.21308 0.604882 4.95988 0.681461 4.93288C1.10249 4.74898 11.445 0.247765 11.8237 0.0935647H11.8243ZM4.73094 10.1994L5.61795 7.79939L10.6443 2.09937L3.84394 7.19939L4.73094 10.1994Z"/>
</svg>
