<svg width="31" height="31" viewBox="0 0 31 31" xmlns="http://www.w3.org/2000/svg">
<path fill-rule="evenodd" clip-rule="evenodd" d="M15.5 0C6.93935 0 0 6.93935 0 15.5C0 24.0606 6.93935 31 15.5 31C24.0606 31 31 24.0606 31 15.5C31 6.93935 24.0606 0 15.5 0ZM15.5 4.2625C18.2822 4.2625 20.5375 6.51775 20.5375 9.3C20.5375 12.0822 18.2822 14.3375 15.5 14.3375C12.7177 14.3375 10.4625 12.0822 10.4625 9.3C10.4625 6.51775 12.7177 4.2625 15.5 4.2625ZM6.0636 23.5414C8.33745 26.209 11.7211 27.9 15.5 27.9C19.2789 27.9 22.6625 26.209 24.938 23.5414C25.5285 22.8501 25.3967 21.8085 24.6698 21.2614C22.3169 19.4928 18.0327 18.6 15.5 18.6C12.9673 18.6 8.6831 19.4928 6.33175 21.2614C5.6048 21.8085 5.47305 22.8486 6.0636 23.5414Z"/>
</svg>
