<svg width="27" height="27" viewBox="0 0 27 27" xmlns="http://www.w3.org/2000/svg">
<path fill-rule="evenodd" clip-rule="evenodd" d="M0 13.5C0 6.04462 6.04462 0 13.5 0C20.9554 0 27 6.04462 27 13.5C27 20.9554 20.9554 27 13.5 27C6.04462 27 0 20.9554 0 13.5ZM19.1341 18.9919L21.2691 18.9626C21.2691 18.9626 22.387 18.894 21.8578 18.0266C21.8543 18.021 21.8495 18.0124 21.843 18.0007C21.7659 17.8623 21.4495 17.2941 20.269 16.2142C19.703 15.6965 19.408 15.4324 19.3774 15.1406C19.3355 14.7413 19.7891 14.2899 20.7216 13.0652C21.7046 11.7748 22.0978 10.9861 21.9743 10.6486C21.8566 10.3257 21.1343 10.4112 21.1343 10.4112L18.7283 10.4259C18.7283 10.4259 18.55 10.4011 18.4174 10.4799C18.2883 10.5564 18.2048 10.7341 18.2048 10.7341C18.2048 10.7341 17.8242 11.7332 17.3156 12.5837C16.2469 14.377 15.8183 14.4715 15.6423 14.3601C15.3013 14.1442 15.3175 13.5592 15.3317 13.0477C15.3344 12.9488 15.3371 12.8527 15.3371 12.7626C15.3371 12.3628 15.3513 12.0167 15.3635 11.7183C15.4043 10.7195 15.4232 10.2567 14.8159 10.112C14.5553 10.049 14.3622 10.0085 13.6935 10.0017C12.8352 9.99386 12.1082 10.0051 11.6968 10.2031C11.4224 10.3359 11.2121 10.6306 11.3413 10.6475C11.499 10.6666 11.8602 10.7431 12.0522 11.0008C12.2991 11.3315 12.29 12.074 12.29 12.074C12.29 12.074 12.4317 14.1193 11.9585 14.3736C11.6339 14.548 11.1904 14.1913 10.2349 12.5646C9.74456 11.7298 9.37538 10.8084 9.37538 10.8084C9.37538 10.8084 9.30338 10.6351 9.17651 10.5429C9.02106 10.4304 8.80618 10.3932 8.80618 10.3932L6.52024 10.4045C6.52024 10.4045 6.17849 10.409 6.05163 10.5552C5.93961 10.688 6.04477 10.9468 6.04477 10.9468C6.04477 10.9468 7.83466 15.052 9.86 17.1322C11.7196 19.0402 13.8295 18.8681 13.8295 18.8681H14.7862C14.7862 18.8681 15.0754 18.8839 15.2228 18.7275C15.3588 18.5823 15.3543 18.3596 15.3543 18.3596C15.3543 18.3596 15.336 17.0951 15.9315 16.9083C16.2865 16.7982 16.702 17.2677 17.1516 17.7757C17.446 18.1084 17.755 18.4575 18.0711 18.6712C18.6734 19.0807 19.1341 18.9919 19.1341 18.9919Z"/>
</svg>
