<svg width="12" height="14" viewBox="0 0 12 14" xmlns="http://www.w3.org/2000/svg">
<path fill-rule="evenodd" clip-rule="evenodd" d="M11.6522 3.10313C11.4291 2.25203 10.9878 1.57826 10.3403 1.10167C9.52323 0.49966 8.58338 0.286156 7.77171 0.156654C6.64858 -0.0224329 5.63128 -0.0475167 4.66252 0.079069C3.75376 0.198071 3.06974 0.388242 2.44517 0.695081C1.22168 1.29593 0.48747 2.26894 0.263281 3.58614C0.154187 4.22548 0.0810932 4.80358 0.0385463 5.35484C-0.0596388 6.62944 0.0292733 7.75763 0.310737 8.80298C0.584565 9.82209 1.06349 10.5507 1.77479 11.029C1.95643 11.1509 2.18771 11.239 2.41244 11.3242C2.52481 11.3668 2.63281 11.4088 2.72718 11.4531V13.5123C2.72718 13.7818 2.93119 14 3.1832 14C3.30211 14 3.41611 13.9504 3.50121 13.8617L5.27781 12.0137C5.32352 11.9579 5.34226 11.9351 5.3663 11.9254C5.383 11.9186 5.40227 11.9182 5.43491 11.9175C6.04202 11.9046 6.66222 11.8795 7.27861 11.844C8.02536 11.8002 8.89048 11.7232 9.70541 11.3598C10.4511 11.0267 10.9955 10.4982 11.3222 9.78942C11.6631 9.04974 11.866 8.24822 11.9419 7.33996C12.0749 5.74276 11.98 4.35673 11.6522 3.10313ZM8.55883 9.18158C8.38046 9.49366 8.11318 9.7095 7.79899 9.8495C7.56934 9.95217 7.33479 9.93059 7.10842 9.82792C5.20799 8.96807 3.71831 7.61238 2.73318 5.66459C2.58181 5.3652 2.46474 5.04602 2.34778 4.72713C2.30796 4.61853 2.26814 4.50997 2.22698 4.40223C2.20457 4.3433 2.19849 4.27775 2.19241 4.21217L2.19241 4.21216C2.18946 4.18038 2.18652 4.1486 2.18171 4.11756C2.19589 3.43213 2.68736 3.04654 3.18374 2.92987C3.37357 2.88496 3.54157 2.95671 3.6823 3.10079C4.07177 3.49863 4.37996 3.95948 4.61179 4.47632C4.71325 4.70324 4.66743 4.90391 4.49451 5.0725C4.45906 5.1075 4.42142 5.14017 4.38269 5.17108C3.98831 5.48842 3.93049 5.72818 4.1405 6.20594C4.49833 7.01853 5.09235 7.56396 5.86092 7.9023C6.06329 7.99155 6.25421 7.94722 6.40912 7.77163L6.42274 7.75663C6.43955 7.73834 6.45659 7.71979 6.46858 7.69871C6.77186 7.15795 7.21097 7.21162 7.6168 7.52021C7.77899 7.6433 7.93816 7.77048 8.09737 7.89769C8.19999 7.97969 8.30262 8.0617 8.4061 8.14264C8.80648 8.45823 8.8032 8.75457 8.55883 9.18158ZM5.97383 3.61005C6.0742 3.59197 6.17675 3.58322 6.27875 3.58322C7.28515 3.58322 8.10391 4.45882 8.10391 5.53567C8.10391 5.64534 8.09572 5.75501 8.07881 5.86118C8.05045 6.0426 8.165 6.2141 8.33464 6.24502C8.3521 6.24852 8.36955 6.24969 8.38646 6.24969C8.53592 6.24969 8.66792 6.13418 8.69356 5.97143C8.71593 5.82851 8.72738 5.68151 8.72738 5.53509C8.72738 4.09131 7.6288 2.91646 6.27875 2.91646C6.14239 2.91646 6.00493 2.92871 5.87129 2.95204C5.7011 2.98237 5.58655 3.15446 5.61491 3.33588C5.64328 3.51788 5.80365 3.64097 5.97383 3.61005ZM7.63644 5.74976C7.63644 5.93351 7.49679 6.08285 7.32497 6.08285C7.15315 6.08285 7.01351 5.93351 7.01351 5.74976C7.01351 5.1985 6.59404 4.74991 6.07857 4.74991C5.90674 4.74991 5.7671 4.60057 5.7671 4.41682C5.7671 4.23306 5.90674 4.08373 6.07857 4.08373C6.93714 4.08314 7.63644 4.83099 7.63644 5.74976ZM9.4305 6.41594C9.57341 6.41594 9.7016 6.31152 9.73432 6.15635C9.78996 5.8956 9.81833 5.62609 9.81833 5.35542C9.81833 3.36738 8.30573 1.74977 6.44676 1.74977C6.19366 1.74977 5.94165 1.77952 5.69728 1.8396C5.52927 1.87985 5.424 2.05836 5.46218 2.23803C5.49982 2.4177 5.66782 2.53087 5.83474 2.48945C6.03384 2.44103 6.23893 2.41653 6.44567 2.41653C7.96154 2.41653 9.19431 3.73547 9.19431 5.356C9.19431 5.57651 9.1714 5.79643 9.12612 6.00935C9.08794 6.18844 9.19322 6.36694 9.36122 6.40777C9.38413 6.41302 9.40759 6.41594 9.4305 6.41594Z"/>
</svg>
