<svg width="22" height="16" viewBox="0 0 22 16" xmlns="http://www.w3.org/2000/svg">
<path fill-rule="evenodd" clip-rule="evenodd" d="M11.0004 0C4.14237 0 0.88607 5.87864 0.0960703 7.55664C-0.0359297 7.83664 -0.0359297 8.16141 0.0960703 8.44141C0.88607 10.1204 4.14237 16 11.0004 16C17.8344 16 21.0928 10.1629 21.8969 8.46094C22.0349 8.16794 22.0349 7.83206 21.8969 7.53906C21.0928 5.83706 17.8344 0 11.0004 0ZM11.0004 3C13.7614 3 16.0004 5.239 16.0004 8C16.0004 10.761 13.7614 13 11.0004 13C8.23937 13 6.00037 10.761 6.00037 8C6.00037 5.239 8.23937 3 11.0004 3ZM8.00037 8C8.00037 6.34315 9.34351 5 11.0004 5C12.6572 5 14.0004 6.34315 14.0004 8C14.0004 9.65685 12.6572 11 11.0004 11C9.34351 11 8.00037 9.65685 8.00037 8Z"/>
</svg>
