<svg width="19" height="17" viewBox="0 0 19 17" xmlns="http://www.w3.org/2000/svg">
<path fill-rule="evenodd" clip-rule="evenodd" d="M9.5 0C6.31145 0 3.5284 1.7136 2.03258 4.25H4.14107C4.91834 3.3048 5.9326 2.55676 7.11319 2.12666C6.84287 2.74546 6.62622 3.468 6.4604 4.25H8.23659C8.65028 2.56955 9.22968 1.7 9.5 1.7C9.77032 1.7 10.3497 2.56955 10.7634 4.25H12.5396C12.3738 3.468 12.1563 2.74546 11.8868 2.12666C13.0665 2.55676 14.0817 3.3048 14.8589 4.25H16.9674C15.4716 1.7136 12.6885 0 9.5 0ZM0 5.95L1.0728 11.05H2.20295L2.9367 8.0999L3.66877 11.05H4.79386L5.86665 5.95H4.56783L4.10396 8.81045L3.41406 5.95H2.45259L1.76101 8.81543L1.3022 5.95H0ZM7.63947 11.05L6.56667 5.95H7.86887L8.32937 8.81543L9.01927 5.95H9.98242L10.6706 8.81045L11.1362 5.95H12.4333L11.3605 11.05H10.2354L9.50337 8.0999L8.76962 11.05H7.63947ZM13.1333 5.95L14.2061 11.05H15.3363L16.07 8.0999L16.8021 11.05H17.9272L19 5.95H17.7012L17.2373 8.81045L16.5474 5.95H15.5859L14.8944 8.81543L14.4355 5.95H13.1333ZM9.5 17C6.31145 17 3.5284 15.2864 2.03258 12.75H4.14107C4.91834 13.6952 5.93347 14.4432 7.11319 14.8733C6.84374 14.2545 6.62622 13.532 6.4604 12.75H8.23659C8.65028 14.4305 9.22799 15.3 9.49831 15.3C9.76863 15.3 10.348 14.4305 10.7617 12.75H12.5379C12.3721 13.532 12.1563 14.2545 11.8868 14.8733C13.0674 14.4432 14.0817 13.6952 14.8589 12.75H16.9674C15.4716 15.2864 12.6885 17 9.5 17Z"/>
</svg>
