<svg width="21" height="21" viewBox="0 0 21 21" xmlns="http://www.w3.org/2000/svg">
<path fill-rule="evenodd" clip-rule="evenodd" d="M9.62806 0.831241C12.49 0.642689 15.1612 1.58545 17.1645 3.56525C19.7403 6.1107 20.5989 9.88175 19.3587 13.5585C18.1185 17.2353 14.398 19.6865 10.3912 19.6865C8.76947 19.6865 7.2431 19.3094 5.90752 18.5551L1.61459 19.6865C1.233 19.7807 0.851401 19.4036 0.9468 19.0265L2.18698 14.9727C0.851401 12.71 0.565206 9.97602 1.32839 7.43057C2.47317 3.7538 5.81212 1.11407 9.62806 0.831241ZM13.444 14.7841C13.921 14.6898 14.875 14.2184 15.0658 13.6528C15.1775 13.3214 15.2238 13.0224 15.2622 12.7747C15.2893 12.5996 15.3124 12.4501 15.352 12.3329C15.2566 12.2386 15.1612 12.1444 14.875 12.0501C14.6842 11.9558 13.5394 11.3902 13.2532 11.2959C13.2119 11.2823 13.1745 11.2686 13.1402 11.2562C12.9374 11.1822 12.844 11.1482 12.6808 11.3902C12.5902 11.5245 12.4349 11.7014 12.2867 11.8704C12.1229 12.057 11.9677 12.2339 11.9176 12.3329C11.8222 12.5215 11.7268 12.5215 11.4406 12.4272C11.4129 12.4135 11.3732 12.3958 11.3225 12.3733C11.0242 12.2409 10.3481 11.9406 9.53266 11.2959C8.76947 10.7302 8.29248 9.97602 8.19708 9.69319C8.00628 9.50464 8.19708 9.31609 8.29248 9.22181L8.67407 8.84471C8.73303 8.78644 8.75555 8.72818 8.78667 8.64766C8.80591 8.59789 8.82843 8.53963 8.86487 8.4676C8.96027 8.37333 8.96027 8.18478 8.86487 8.0905C8.76947 7.90195 8.29248 6.77064 8.10168 6.29925C7.91088 5.92215 7.72009 5.92215 7.52929 5.92215H7.0523C6.8615 5.92215 6.57531 5.92215 6.38451 6.20498C6.09831 6.48781 5.52592 7.05346 5.52592 8.18478C5.52592 9.13818 6.1357 10.0916 6.38459 10.4807C6.43103 10.5533 6.46491 10.6063 6.47991 10.636C6.50815 10.6639 6.56565 10.7413 6.65086 10.8562C7.14136 11.5171 8.55008 13.4152 10.582 14.2184C12.2712 14.8544 12.8074 14.8201 13.22 14.7937C13.2967 14.7887 13.3692 14.7841 13.444 14.7841Z"/>
</svg>
