<svg width="36" height="33" viewBox="0 0 36 33" fill="none" xmlns="http://www.w3.org/2000/svg">
<path fill-rule="evenodd" clip-rule="evenodd" d="M28.002 32.6816C27.7182 32.8768 27.3838 32.9869 27.0387 32.9988C26.2289 33.0277 25.4995 32.5166 25.2566 31.7502C25.0136 30.9838 25.3172 30.1509 25.998 29.7153C29.8568 27.1542 32.4 22.8088 32.4 17.8466C32.4 9.93938 25.9752 3.56933 18 3.56933C10.0248 3.56933 3.6 9.93938 3.6 17.8466C3.6 22.8088 6.14319 27.1542 10.002 29.7153C10.5364 30.0702 10.8393 30.6809 10.7965 31.3172C10.7537 31.9536 10.3717 32.519 9.79451 32.8004C9.21729 33.0818 8.53248 33.0366 7.99805 32.6816C3.17721 29.4819 0 24.0207 0 17.8466C0 8.01076 8.0796 0 18 0C27.9204 0 36 8.01076 36 17.8466C36 24.0207 32.8228 29.4819 28.002 32.6816ZM19.8 30.3393C19.8 31.3244 18.9936 32.1239 18 32.1239C17.0064 32.1239 16.2 31.3244 16.2 30.3393V19.6313L12.1816 19.6313C11.3662 19.6313 10.9534 18.653 11.5313 18.0802L16.5797 13.0747C17.3645 12.2966 18.6355 12.2966 19.4203 13.0747L24.4688 18.0802C25.0465 18.653 24.6338 19.6313 23.8184 19.6313H19.8V30.3393Z" fill="white"/>
</svg>
