<svg width="262" height="113" viewBox="0 0 262 113" fill="none" xmlns="http://www.w3.org/2000/svg">
<path fill-rule="evenodd" clip-rule="evenodd" d="M69.0698 86.0361V109H44.8953L44.7384 86.0361H0V69.5209L30.1395 0L51.1744 7.86436L25.5872 67.4762H45.0523L47.7209 42.3102H69.0698V67.4762H81V86.0361H69.0698ZM160.725 98.4257C153.876 108.142 143.967 113 131 113C118.033 113 108.124 108.142 101.275 98.4257C94.4248 88.7096 91 74.8746 91 56.9208C91 38.8614 94.4248 25.0264 101.275 15.4158C108.124 5.80528 118.033 1 131 1C143.967 1 153.876 5.80528 160.725 15.4158C167.575 25.0264 171 38.8614 171 56.9208C171 74.8746 167.575 88.7096 160.725 98.4257ZM130.5 94C126.966 94 124.16 92.8372 122.081 90.5116C120.002 88.186 118.469 84.3013 117.481 78.8573C116.494 73.4133 116 65.9345 116 56.4207C116 46.907 116.494 39.4545 117.481 34.0634C118.469 28.6723 120.002 24.814 122.081 22.4884C124.16 20.1628 126.966 19 130.5 19C134.034 19 136.84 20.1099 138.919 22.3298C140.998 24.5497 142.531 28.3816 143.519 33.8256C144.506 39.2696 145 46.8013 145 56.4207C145 66.0402 144.506 73.5719 143.519 79.0159C142.531 84.4598 140.998 88.3182 138.919 90.5909C136.84 92.8636 134.034 94 130.5 94ZM250.07 86.0361V109H225.895L225.738 86.0361H181V69.5209L211.14 0L232.174 7.86436L206.587 67.4762H226.052L228.721 42.3102H250.07V67.4762H262V86.0361H250.07Z" fill="url(#paint0_linear)"/>
<defs>
<linearGradient id="paint0_linear" x1="0" y1="0" x2="0" y2="113" gradientUnits="userSpaceOnUse">
<stop stop-color="#FF954D"/>
<stop offset="1" stop-color="#FB6600"/>
</linearGradient>
</defs>
</svg>
