<svg width="14" height="28" viewBox="0 0 14 28" fill="none" xmlns="http://www.w3.org/2000/svg">
<path d="M11.4545 7.63584V20.8712C11.4545 22.9967 10.0176 24.9313 7.93545 25.3577C5.07309 25.9445 2.54545 23.7617 2.54545 20.9998V5.23414C2.54545 3.96648 3.40836 2.7879 4.65945 2.58044C6.25291 2.31698 7.63636 3.54519 7.63636 5.09032V18.4543C7.63636 18.8056 7.35 19.0907 7 19.0907C6.65 19.0907 6.36364 18.8056 6.36364 18.4543V7.63584C6.36364 6.93327 5.79345 6.36308 5.09091 6.36308C4.38836 6.36308 3.81818 6.93327 3.81818 7.63584V18.2672C3.81818 19.9319 5.01327 21.4516 6.66909 21.6196C8.57182 21.8131 10.1818 20.3176 10.1818 18.4543V5.31687C10.1818 2.65935 8.24345 0.281843 5.59873 0.0247459C2.56327 -0.270534 0 2.11589 0 5.09032V20.688C0 24.342 2.66382 27.6105 6.29873 27.9656C10.472 28.3741 14 25.0904 14 20.9998V7.63584C14 6.93327 13.4298 6.36308 12.7273 6.36308C12.0247 6.36308 11.4545 6.93327 11.4545 7.63584Z" fill="#ABA6A6"/>
</svg>
