<svg width="28" height="27" viewBox="0 0 28 27" fill="none" xmlns="http://www.w3.org/2000/svg">
<circle cx="14.5" cy="13.5" r="13.5" fill="white"/>
<path d="M13.5489 0.00732215C6.73668 0.231198 1.00449 5.7684 0.533333 12.6027C0.0351754 19.8332 5.1801 25.943 11.9829 26.9701V17.1644H9.80393C8.82381 17.1644 8.03 16.3666 8.03 15.3815V15.3815C8.03 14.3965 8.82381 13.5986 9.80393 13.5986H11.9815V11.2256C11.9815 7.29619 13.8864 5.57166 17.1359 5.57166C17.6178 5.57166 18.0296 5.58252 18.3793 5.60015C19.2379 5.64222 19.9034 6.36133 19.9034 7.22563V7.22563C19.9034 8.12521 19.1785 8.85382 18.2834 8.85382H17.6867C16.307 8.85382 15.825 10.1686 15.825 11.6502V13.6H18.3496C19.1474 13.6 19.7576 14.315 19.6361 15.1074L19.4903 16.0586C19.3918 16.6963 18.8464 17.1671 18.2038 17.1671H15.825V27C22.4172 26.1004 27.5 20.437 27.5 13.5688C27.5 5.92444 21.2103 -0.242334 13.5489 0.00732215Z" fill="#3747AC"/>
</svg>
