<svg width="15" height="15" viewBox="0 0 15 15" fill="none" xmlns="http://www.w3.org/2000/svg">
<path fill-rule="evenodd" clip-rule="evenodd" d="M14.8876 6.05998L14.4211 7.5L14.8869 8.94077C15.2364 10.0185 14.7504 11.1908 13.7416 11.7061L12.3938 12.3946L11.7053 13.7423C11.1901 14.7511 10.0178 15.2364 8.94002 14.8876L7.5 14.4211L6.05923 14.8869C4.98146 15.2364 3.8092 14.7504 3.29394 13.7416L2.60543 12.3938L1.25766 11.7053C0.248898 11.1901 -0.236359 10.0178 0.112396 8.94002L0.578902 7.5L0.112396 6.05998C-0.236359 4.98221 0.248898 3.80995 1.25766 3.29469L2.60543 2.60543L3.29469 1.25766C3.80995 0.248898 4.98221 -0.236359 6.05998 0.112396L7.5 0.578902L8.94077 0.113146C10.0185 -0.236359 11.1908 0.249648 11.7061 1.25841L12.3946 2.60618L13.7423 3.29469C14.7511 3.80995 15.2364 4.98221 14.8876 6.05998ZM4.49996 8.56051L6.21973 10.2803C6.51224 10.5728 6.98774 10.5728 7.28025 10.2803L11.2501 6.31048C11.5426 6.01798 11.5426 5.54247 11.2501 5.24997C10.9575 4.95746 10.482 4.95746 10.1895 5.24997L6.74999 8.68952L5.56047 7.5C5.26797 7.2075 4.79246 7.2075 4.49996 7.5C4.20745 7.7925 4.20745 8.26801 4.49996 8.56051Z" fill="url(#paint0_linear)"/>
<defs>
<linearGradient id="paint0_linear" x1="6.38753" y1="4.00997" x2="4.63364" y2="10.4604" gradientUnits="userSpaceOnUse">
<stop stop-color="#21D341"/>
<stop offset="1" stop-color="#17A130"/>
</linearGradient>
</defs>
</svg>
