<svg width="27" height="27" viewBox="0 0 27 27" fill="none" xmlns="http://www.w3.org/2000/svg">
<circle cx="13.5" cy="13.5" r="13.5" fill="white"/>
<path fill-rule="evenodd" clip-rule="evenodd" d="M0 13.5C0 6.05622 6.05622 0 13.5 0C20.9438 0 27 6.05622 27 13.5C27 20.9438 20.9438 27 13.5 27C6.05622 27 0 20.9438 0 13.5ZM17 9C17 6.79086 15.2091 5 13 5C10.7909 5 9 6.79086 9 9C9 11.2091 10.7909 13 13 13C15.2091 13 17 11.2091 17 9ZM13 7C11.8954 7 11 7.89543 11 9C11 10.1046 11.8954 11 13 11C14.1046 11 15 10.1046 15 9C15 7.89543 14.1046 7 13 7ZM10.6337 14.1458C10.4482 14.0401 10.2536 13.9951 10.0657 14.0007C9.50192 14.0175 9 14.4928 9 15.1732C9 15.6609 9.25045 16.1109 9.65039 16.335C10.1206 16.5974 10.6221 16.7997 11.1379 16.964L9.32959 18.9214C8.89028 19.3969 8.89028 20.1677 9.32959 20.6433C9.76834 21.1188 10.4817 21.1188 10.9204 20.6433L13.5 17.8511L16.0796 20.6433C16.299 20.8813 16.587 21 16.875 21C17.163 21 17.451 20.8813 17.6704 20.6433C18.1097 20.1677 18.1097 19.3969 17.6704 18.9214L15.8621 16.964C16.3779 16.7997 16.8794 16.5962 17.3496 16.3338C17.7495 16.1103 18 15.6609 18 15.1732C18 14.266 17.1083 13.7232 16.3663 14.1458C15.5102 14.6341 14.5356 14.9116 13.5 14.9116C12.4644 14.9116 11.4898 14.6341 10.6337 14.1458Z" fill="#F17C10"/>
</svg>
