<svg width="32" height="42" viewBox="0 0 32 42" fill="none" xmlns="http://www.w3.org/2000/svg">
<path d="M32 42H0V0H22L32 10V42Z" fill="#FF5722"/>
<path d="M30.5 11H21V1.5L30.5 11Z" fill="#FBE9E7"/>
<path fill-rule="evenodd" clip-rule="evenodd" d="M7.81005 26.5V30H5.80005V20.047H9.19105C10.175 20.047 10.961 20.353 11.546 20.963C12.131 21.573 12.424 22.366 12.424 23.342C12.424 24.318 12.134 25.087 11.556 25.653C10.978 26.219 10.175 26.5 9.14905 26.5H7.81005ZM7.81005 24.825H9.19105C9.57405 24.825 9.87005 24.7 10.08 24.449C10.29 24.198 10.394 23.834 10.394 23.355C10.394 22.858 10.287 22.463 10.073 22.168C9.85905 21.875 9.57205 21.726 9.21205 21.721H7.81005V24.825ZM13.764 20.047V30H16.341C17.553 30 18.504 29.628 19.196 28.881C19.885 28.137 20.231 27.11 20.231 25.802V24.189C20.217 22.904 19.865 21.892 19.174 21.154C18.485 20.416 17.558 20.047 16.396 20.047H13.764ZM15.773 21.723V28.332H16.375C17.045 28.332 17.517 28.155 17.79 27.802C18.063 27.449 18.207 26.84 18.221 25.974V24.245C18.221 23.315 18.091 22.667 17.831 22.301C17.571 21.934 17.129 21.741 16.505 21.723H15.773ZM23.683 25.939H26.807V24.272H23.683V21.722H27.183V20.047H21.673V30H23.683V25.939Z" fill="#FFEBEE"/>
</svg>
