<svg width="27" height="27" viewBox="0 0 27 27" fill="none" xmlns="http://www.w3.org/2000/svg">
<circle cx="13.5" cy="13.5" r="13.5" fill="url(#paint0_linear)"/>
<path d="M18.6205 16.5393L16.6566 16.3132C16.1812 16.2587 15.7136 16.4223 15.3785 16.7575L13.9367 18.1993C12.8308 17.6381 11.8277 16.9063 10.9611 16.0389C10.0937 15.1723 9.36186 14.1692 8.80073 13.0633L10.2425 11.6215C10.5777 11.2864 10.7413 10.8188 10.6868 10.3434L10.4607 8.37945C10.3672 7.59231 9.70478 7 8.90984 7H7.56156C6.6809 7 5.94831 7.73259 6.00286 8.61326C6.20939 11.9403 7.64262 14.9322 9.85519 17.1448C12.0678 19.3574 15.0597 20.7906 18.3867 20.9971C19.2674 21.0517 20 20.3191 20 19.4384V18.0902C20 17.2952 19.4077 16.6328 18.6205 16.5393Z" fill="white"/>
<defs>
<linearGradient id="paint0_linear" x1="0" y1="0" x2="0" y2="27" gradientUnits="userSpaceOnUse">
<stop stop-color="#FF954D"/>
<stop offset="1" stop-color="#FB6600"/>
</linearGradient>
</defs>
</svg>
