<svg width="24" height="24" viewBox="0 0 24 24" fill="none" xmlns="http://www.w3.org/2000/svg">
<path fill-rule="evenodd" clip-rule="evenodd" d="M0.40918 11.2414C0.40918 5.17243 5.37874 0.206909 11.4527 0.206909C17.5266 0.206909 22.4961 5.17243 22.4961 11.2414C22.4961 17.3104 17.5266 22.2759 11.4527 22.2759C5.37874 22.2759 0.40918 17.3104 0.40918 11.2414ZM10.017 16.4276L17.7474 8.70346C18.1892 8.26208 18.1892 7.60001 17.7474 7.15863C17.3057 6.71725 16.6431 6.71725 16.2014 7.15863L9.24396 14.1104L6.70396 11.5724C6.26222 11.131 5.59961 11.131 5.15788 11.5724C4.71614 12.0138 4.71614 12.6759 5.15788 13.1173L8.47092 16.4276C8.69179 16.6483 8.91266 16.7586 9.24396 16.7586C9.57527 16.7586 9.79614 16.6483 10.017 16.4276Z" fill="#4FB81D"/>
</svg>
