<svg width="9" height="9" viewBox="0 0 9 9" fill="none" xmlns="http://www.w3.org/2000/svg">
<path fill-rule="evenodd" clip-rule="evenodd" d="M5.51261 8.34721C5.01825 8.05416 4.40339 8.05416 3.90902 8.34721L3.71783 8.46054C2.56171 9.14585 1.16003 8.07043 1.50324 6.77102V6.77102C1.65284 6.20464 1.45394 5.59979 0.995036 5.23569V5.23569C-0.0617619 4.39721 0.469028 2.69731 1.81517 2.60915L1.94525 2.60063C2.51928 2.56303 3.02641 2.19824 3.25172 1.66896V1.66896C3.79464 0.393581 5.62699 0.39358 6.16991 1.66896V1.66896C6.39522 2.19824 6.90236 2.56303 7.47638 2.60063L7.60647 2.60915C8.95261 2.69731 9.4834 4.39721 8.4266 5.23569V5.23569C7.96769 5.59979 7.76879 6.20464 7.91839 6.77102V6.77102C8.26161 8.07043 6.85992 9.14585 5.7038 8.46054L5.51261 8.34721Z" fill="url(#paint0_linear)"/>
<defs>
<linearGradient id="paint0_linear" x1="1.43177" y1="-11.3106" x2="-4.96582" y2="8.47857" gradientUnits="userSpaceOnUse">
<stop stop-color="#FAD961"/>
<stop offset="1" stop-color="#F76B1C"/>
</linearGradient>
</defs>
</svg>
