<svg width="40" height="37" viewBox="0 0 40 37" fill="none" xmlns="http://www.w3.org/2000/svg">
<path fill-rule="evenodd" clip-rule="evenodd" d="M20.9663 30.75C20.3754 30.3802 19.6252 30.3802 19.0343 30.75L10.3094 36.2112C8.92031 37.0807 7.17948 35.8159 7.57715 34.2261L10.0749 24.2407C10.2441 23.5644 10.0122 22.8509 9.47787 22.4032L1.58786 15.793C0.331686 14.7406 0.996629 12.6941 2.6315 12.581L12.9001 11.8708C13.5955 11.8227 14.2024 11.3818 14.4631 10.7352L18.3116 1.18871C18.9244 -0.3312 21.0762 -0.331198 21.6889 1.18872L25.5375 10.7352C25.7981 11.3818 26.4051 11.8227 27.1005 11.8708L37.3691 12.581C39.0039 12.6941 39.6689 14.7406 38.4127 15.793L30.5227 22.4032C29.9883 22.8509 29.7565 23.5644 29.9257 24.2407L32.4234 34.2261C32.8211 35.8159 31.0802 37.0807 29.6911 36.2112L20.9663 30.75Z" fill="#D8D8D8"/>
</svg>
