<svg width="9" height="9" viewBox="0 0 9 9" fill="none" xmlns="http://www.w3.org/2000/svg">
<path fill-rule="evenodd" clip-rule="evenodd" d="M5.26113 8.34721C4.76676 8.05416 4.1519 8.05416 3.65753 8.34721L3.46634 8.46054C2.31023 9.14585 0.908539 8.07043 1.25175 6.77102C1.40135 6.20464 1.20246 5.59979 0.743548 5.23569C-0.313249 4.39721 0.21754 2.69731 1.56368 2.60915L1.69377 2.60063C2.26779 2.56303 2.77492 2.19824 3.00024 1.66896C3.54315 0.393581 5.3755 0.393581 5.91842 1.66896C6.14373 2.19824 6.65087 2.56303 7.22489 2.60063L7.35498 2.60915C8.70112 2.69731 9.23191 4.39721 8.17511 5.23569C7.7162 5.59979 7.51731 6.20464 7.6669 6.77102C8.01012 8.07043 6.60843 9.14585 5.45232 8.46054L5.26113 8.34721Z" fill="#D8D8D8"/>
</svg>
