<svg width="40" height="37" viewBox="0 0 40 37" fill="none" xmlns="http://www.w3.org/2000/svg">
<path fill-rule="evenodd" clip-rule="evenodd" d="M20.966 30.75C20.3751 30.3802 19.6249 30.3802 19.034 30.75L10.3091 36.2112C8.92004 37.0807 7.1792 35.8159 7.57687 34.2261L10.0746 24.2407C10.2438 23.5644 10.0119 22.8509 9.4776 22.4032L1.58759 15.793C0.33141 14.7406 0.996352 12.6941 2.63122 12.581L12.8998 11.8708C13.5952 11.8227 14.2021 11.3818 14.4628 10.7352L18.3114 1.18871C18.9241 -0.3312 21.0759 -0.331198 21.6886 1.18872L25.5372 10.7352C25.7979 11.3818 26.4048 11.8227 27.1002 11.8708L37.3688 12.581C39.0037 12.6941 39.6686 14.7406 38.4124 15.793L30.5224 22.4032C29.9881 22.8509 29.7562 23.5644 29.9254 24.2407L32.4231 34.2261C32.8208 35.8159 31.08 37.0807 29.6909 36.2112L20.966 30.75Z" fill="url(#paint0_linear)"/>
<defs>
<linearGradient id="paint0_linear" x1="9.3125" y1="-35.875" x2="-13.6875" y2="31.5" gradientUnits="userSpaceOnUse">
<stop stop-color="#FAD961"/>
<stop offset="1" stop-color="#F76B1C"/>
</linearGradient>
</defs>
</svg>
