<svg width="27" height="27" viewBox="0 0 27 27" fill="none" xmlns="http://www.w3.org/2000/svg">
<circle cx="13.5" cy="13.5" r="13.5" fill="url(#paint0_linear)"/>
<path fill-rule="evenodd" clip-rule="evenodd" d="M17.8243 8.09356C18.1845 7.94686 18.5328 7.97416 18.7545 8.16496C18.9136 8.30147 19.078 8.57927 18.9597 9.12527L17.0213 19.3484C17.005 19.391 16.8495 19.7669 16.4607 19.9289C16.3466 19.9763 16.2271 20 16.1027 20C15.9415 20 15.7727 19.9604 15.5965 19.8812L15.5347 19.8437L12.9396 17.7902L11.332 19.3031C11.1889 19.4171 10.9678 19.4966 10.7454 19.4096C10.492 19.3313 10.3475 18.9509 10.2588 18.6614C10.1275 18.2327 9.56944 16.3475 9.34716 15.5966C9.32863 15.534 9.31244 15.4793 9.29902 15.434L6.66963 14.5205C6.604 14.4962 6.06647 14.2856 6.00497 13.7771C5.93608 13.2131 6.60488 12.9599 6.68146 12.9329C7.10249 12.749 17.445 8.24777 17.8237 8.09356H17.8243ZM10.7309 18.1994L11.618 15.7994L16.6443 10.0994L9.84394 15.1994L10.7309 18.1994Z" fill="white"/>
<defs>
<linearGradient id="paint0_linear" x1="0" y1="0" x2="0" y2="27" gradientUnits="userSpaceOnUse">
<stop stop-color="#44BBF8"/>
<stop offset="1" stop-color="#0B89C5"/>
</linearGradient>
</defs>
</svg>
