<svg width="23" height="16" viewBox="0 0 23 16" fill="none" xmlns="http://www.w3.org/2000/svg">
<path fill-rule="evenodd" clip-rule="evenodd" d="M12.0004 0C5.14237 0 1.88607 5.87864 1.09607 7.55664C0.96407 7.83664 0.96407 8.16141 1.09607 8.44141C1.88607 10.1204 5.14237 16 12.0004 16C18.8344 16 22.0928 10.1629 22.8969 8.46094C23.0349 8.16794 23.0349 7.83206 22.8969 7.53906C22.0928 5.83706 18.8344 0 12.0004 0ZM12.0004 3C14.7614 3 17.0004 5.239 17.0004 8C17.0004 10.761 14.7614 13 12.0004 13C9.23937 13 7.00037 10.761 7.00037 8C7.00037 5.239 9.23937 3 12.0004 3ZM9.00037 8C9.00037 6.34315 10.3435 5 12.0004 5C13.6572 5 15.0004 6.34315 15.0004 8C15.0004 9.65685 13.6572 11 12.0004 11C10.3435 11 9.00037 9.65685 9.00037 8Z" fill="url(#paint0_linear)"/>
<defs>
<linearGradient id="paint0_linear" x1="0.99707" y1="0" x2="0.99707" y2="16" gradientUnits="userSpaceOnUse">
<stop stop-color="#FF954D"/>
<stop offset="1" stop-color="#FB6600"/>
</linearGradient>
</defs>
</svg>
