<svg width="27" height="27" viewBox="0 0 27 27" fill="none" xmlns="http://www.w3.org/2000/svg">
<circle cx="13.5" cy="13.5" r="13.5" fill="url(#paint0_linear)"/>
<path fill-rule="evenodd" clip-rule="evenodd" d="M18.6522 10.1031C18.4291 9.25203 17.9878 8.57826 17.3403 8.10167C16.5232 7.49966 15.5834 7.28616 14.7717 7.15665C13.6486 6.97757 12.6313 6.95248 11.6625 7.07907C10.7538 7.19807 10.0697 7.38824 9.44517 7.69508C8.22168 8.29593 7.48747 9.26894 7.26328 10.5861C7.15419 11.2255 7.08109 11.8036 7.03855 12.3548C6.94036 13.6294 7.02927 14.7576 7.31074 15.803C7.58456 16.8221 8.06349 17.5507 8.77479 18.029C8.95643 18.1509 9.18771 18.239 9.41244 18.3242C9.52481 18.3668 9.63281 18.4088 9.72718 18.4531V20.5123C9.72718 20.7818 9.93119 21 10.1832 21C10.3021 21 10.4161 20.9504 10.5012 20.8617L12.2778 19.0137C12.3235 18.9579 12.3423 18.9351 12.3663 18.9254C12.383 18.9186 12.4023 18.9182 12.4349 18.9175C13.042 18.9046 13.6622 18.8795 14.2786 18.844C15.0254 18.8002 15.8905 18.7232 16.7054 18.3598C17.4511 18.0267 17.9955 17.4982 18.3222 16.7894C18.6631 16.0497 18.866 15.2482 18.9419 14.34C19.0749 12.7428 18.98 11.3567 18.6522 10.1031ZM15.5588 16.1816C15.3805 16.4937 15.1132 16.7095 14.799 16.8495C14.5693 16.9522 14.3348 16.9306 14.1084 16.8279C12.208 15.9681 10.7183 14.6124 9.73318 12.6646C9.58181 12.3652 9.46474 12.046 9.34778 11.7271C9.30796 11.6185 9.26814 11.51 9.22698 11.4022C9.20457 11.3433 9.19849 11.2777 9.19241 11.2122L9.19241 11.2122C9.18946 11.1804 9.18652 11.1486 9.18171 11.1176C9.19589 10.4321 9.68736 10.0465 10.1837 9.92987C10.3736 9.88496 10.5416 9.95671 10.6823 10.1008C11.0718 10.4986 11.38 10.9595 11.6118 11.4763C11.7132 11.7032 11.6674 11.9039 11.4945 12.0725C11.4591 12.1075 11.4214 12.1402 11.3827 12.1711C10.9883 12.4884 10.9305 12.7282 11.1405 13.2059C11.4983 14.0185 12.0924 14.564 12.8609 14.9023C13.0633 14.9916 13.2542 14.9472 13.4091 14.7716L13.4227 14.7566C13.4395 14.7383 13.4566 14.7198 13.4686 14.6987C13.7719 14.158 14.211 14.2116 14.6168 14.5202C14.779 14.6433 14.9382 14.7705 15.0974 14.8977C15.2 14.9797 15.3026 15.0617 15.4061 15.1426C15.8065 15.4582 15.8032 15.7546 15.5588 16.1816ZM12.9738 10.6101C13.0742 10.592 13.1768 10.5832 13.2788 10.5832C14.2852 10.5832 15.1039 11.4588 15.1039 12.5357C15.1039 12.6453 15.0957 12.755 15.0788 12.8612C15.0504 13.0426 15.165 13.2141 15.3346 13.245C15.3521 13.2485 15.3696 13.2497 15.3865 13.2497C15.5359 13.2497 15.6679 13.1342 15.6936 12.9714C15.7159 12.8285 15.7274 12.6815 15.7274 12.5351C15.7274 11.0913 14.6288 9.91646 13.2788 9.91646C13.1424 9.91646 13.0049 9.92871 12.8713 9.95204C12.7011 9.98237 12.5865 10.1545 12.6149 10.3359C12.6433 10.5179 12.8036 10.641 12.9738 10.6101ZM14.6364 12.7498C14.6364 12.9335 14.4968 13.0828 14.325 13.0828C14.1531 13.0828 14.0135 12.9335 14.0135 12.7498C14.0135 12.1985 13.594 11.7499 13.0786 11.7499C12.9067 11.7499 12.7671 11.6006 12.7671 11.4168C12.7671 11.2331 12.9067 11.0837 13.0786 11.0837C13.9371 11.0831 14.6364 11.831 14.6364 12.7498ZM16.4305 13.4159C16.5734 13.4159 16.7016 13.3115 16.7343 13.1564C16.79 12.8956 16.8183 12.6261 16.8183 12.3554C16.8183 10.3674 15.3057 8.74977 13.4468 8.74977C13.1937 8.74977 12.9417 8.77952 12.6973 8.8396C12.5293 8.87985 12.424 9.05836 12.4622 9.23803C12.4998 9.4177 12.6678 9.53087 12.8347 9.48945C13.0338 9.44103 13.2389 9.41653 13.4457 9.41653C14.9615 9.41653 16.1943 10.7355 16.1943 12.356C16.1943 12.5765 16.1714 12.7964 16.1261 13.0093C16.0879 13.1884 16.1932 13.3669 16.3612 13.4078C16.3841 13.413 16.4076 13.4159 16.4305 13.4159Z" fill="white"/>
<defs>
<linearGradient id="paint0_linear" x1="0" y1="0" x2="0" y2="27" gradientUnits="userSpaceOnUse">
<stop stop-color="#AE36D1"/>
<stop offset="1" stop-color="#7B22B1"/>
</linearGradient>
</defs>
</svg>
