<svg width="27" height="27" viewBox="0 0 27 27" fill="none" xmlns="http://www.w3.org/2000/svg">
<circle cx="13.5" cy="13.5" r="13.5" fill="#D72B2B"/>
<path fill-rule="evenodd" clip-rule="evenodd" d="M13.5 5C10.3115 5 7.5284 6.7136 6.03258 9.25H8.14107C8.91834 8.3048 9.9326 7.55676 11.1132 7.12666C10.8429 7.74546 10.6262 8.468 10.4604 9.25H12.2366C12.6503 7.56955 13.2297 6.7 13.5 6.7C13.7703 6.7 14.3497 7.56955 14.7634 9.25H16.5396C16.3738 8.468 16.1563 7.74546 15.8868 7.12666C17.0665 7.55676 18.0817 8.3048 18.8589 9.25H20.9674C19.4716 6.7136 16.6885 5 13.5 5ZM4 10.95L5.0728 16.05H6.20295L6.9367 13.0999L7.66877 16.05H8.79386L9.86665 10.95H8.56783L8.10396 13.8104L7.41406 10.95H6.45259L5.76101 13.8154L5.3022 10.95H4ZM11.6395 16.05L10.5667 10.95H11.8689L12.3294 13.8154L13.0193 10.95H13.9824L14.6706 13.8104L15.1362 10.95H16.4333L15.3605 16.05H14.2354L13.5034 13.0999L12.7696 16.05H11.6395ZM17.1333 10.95L18.2061 16.05H19.3363L20.07 13.0999L20.8021 16.05H21.9272L23 10.95H21.7012L21.2373 13.8104L20.5474 10.95H19.5859L18.8944 13.8154L18.4355 10.95H17.1333ZM13.5 22C10.3115 22 7.5284 20.2864 6.03258 17.75H8.14107C8.91834 18.6952 9.93347 19.4432 11.1132 19.8733C10.8437 19.2545 10.6262 18.532 10.4604 17.75H12.2366C12.6503 19.4305 13.228 20.3 13.4983 20.3C13.7686 20.3 14.348 19.4305 14.7617 17.75H16.5379C16.3721 18.532 16.1563 19.2545 15.8868 19.8733C17.0674 19.4432 18.0817 18.6952 18.8589 17.75H20.9674C19.4716 20.2864 16.6885 22 13.5 22Z" fill="white"/>
</svg>
