<svg width="27" height="27" viewBox="0 0 27 27" fill="none" xmlns="http://www.w3.org/2000/svg">
<circle cx="13.5" cy="13.5" r="13.5" fill="#34D230"/>
<path fill-rule="evenodd" clip-rule="evenodd" d="M13.332 6.63637C15.0707 6.5091 16.6934 7.14546 17.9105 8.48182C19.4752 10.2 19.9968 12.7455 19.2434 15.2273C18.49 17.7091 16.2298 19.3636 13.7957 19.3636C12.8105 19.3636 11.8832 19.1091 11.0718 18.6L8.46387 19.3636C8.23205 19.4273 8.00023 19.1727 8.05818 18.9182L8.81159 16.1818C8.00023 14.6546 7.82637 12.8091 8.29 11.0909C8.98546 8.6091 11.0139 6.82728 13.332 6.63637ZM15.6502 16.0546C15.94 15.9909 16.5195 15.6727 16.6355 15.2909C16.7034 15.0673 16.7315 14.8654 16.7548 14.6982C16.7713 14.58 16.7853 14.4791 16.8093 14.4C16.7514 14.3364 16.6934 14.2727 16.5195 14.2091C16.4036 14.1455 15.7082 13.7636 15.5343 13.7C15.5092 13.6908 15.4865 13.6816 15.4657 13.6732C15.3425 13.6233 15.2858 13.6003 15.1866 13.7636C15.1315 13.8543 15.0372 13.9738 14.9472 14.0878C14.8477 14.2138 14.7534 14.3332 14.723 14.4C14.665 14.5273 14.607 14.5273 14.4332 14.4636C14.4164 14.4544 14.3922 14.4425 14.3614 14.4273C14.1802 14.3379 13.7695 14.1352 13.2741 13.7C12.8105 13.3182 12.5207 12.8091 12.4627 12.6182C12.3468 12.4909 12.4627 12.3636 12.5207 12.3L12.7525 12.0455C12.7883 12.0061 12.802 11.9668 12.8209 11.9124C12.8326 11.8789 12.8463 11.8395 12.8684 11.7909C12.9264 11.7273 12.9264 11.6 12.8684 11.5364C12.8105 11.4091 12.5207 10.6455 12.4048 10.3273C12.2889 10.0727 12.173 10.0727 12.057 10.0727H11.7673C11.6514 10.0727 11.4775 10.0727 11.3616 10.2636C11.1877 10.4546 10.84 10.8364 10.84 11.6C10.84 12.2436 11.2104 12.8871 11.3616 13.1498C11.3899 13.1988 11.4104 13.2345 11.4195 13.2546C11.4367 13.2734 11.4716 13.3257 11.5234 13.4032C11.8214 13.8493 12.6772 15.1306 13.9116 15.6727C14.9378 16.102 15.2635 16.0788 15.5141 16.061C15.5608 16.0577 15.6048 16.0546 15.6502 16.0546Z" fill="white"/>
</svg>
