<svg width="22" height="19" viewBox="0 0 22 19" fill="none" xmlns="http://www.w3.org/2000/svg">
<path fill-rule="evenodd" clip-rule="evenodd" d="M11 0C10.7329 3.42643e-05 10.4769 0.106936 10.2891 0.296875L0.203125 9.09766C0.0753815 9.19192 -6.10024e-06 9.34124 0 9.5C0 9.77614 0.223858 10 0.5 10H3V18C3 18.552 3.448 19 4 19H8C8.552 19 9 18.552 9 18V12H13V18C13 18.552 13.448 19 14 19H18C18.552 19 19 18.552 19 18V10H21.5C21.7761 10 22 9.77614 22 9.5C22 9.34124 21.9246 9.19192 21.7969 9.09766L11.7168 0.302734C11.7149 0.300773 11.7129 0.29882 11.7109 0.296875C11.5231 0.106936 11.2671 3.42643e-05 11 0Z" fill="#B6B6B6"/>
</svg>
