<svg width="21" height="20" viewBox="0 0 21 20" fill="none" xmlns="http://www.w3.org/2000/svg">
<path fill-rule="evenodd" clip-rule="evenodd" d="M8.00977 0.808594C8.10177 0.338594 8.51123 0 8.99023 0H12.0098C12.4888 0 12.8982 0.338594 12.9902 0.808594L13.3242 2.52344C14.1446 2.83366 14.9041 3.26579 15.5703 3.8125L17.2148 3.24609C17.6678 3.09109 18.1672 3.27836 18.4062 3.69336L19.9141 6.30664C20.1531 6.72164 20.0661 7.2485 19.7051 7.5625L18.3867 8.70898C18.4553 9.13034 18.5 9.55928 18.5 10C18.5 10.4407 18.4553 10.8697 18.3867 11.291L19.7051 12.4375C20.0661 12.7515 20.1531 13.2764 19.9141 13.6914L18.4062 16.3066C18.1662 16.7216 17.6678 16.908 17.2148 16.752L15.5703 16.1855C14.9039 16.7326 14.145 17.1662 13.3242 17.4766L12.9902 19.1914C12.8982 19.6614 12.4888 20 12.0098 20H8.99023C8.51123 20 8.10177 19.6614 8.00977 19.1914L7.67578 17.4766C6.85539 17.1663 6.09588 16.7342 5.42969 16.1875L3.78516 16.7539C3.33216 16.9089 2.83275 16.7216 2.59375 16.3066L1.08594 13.6934C0.846937 13.2784 0.933922 12.7515 1.29492 12.4375L2.61328 11.291C2.54472 10.8697 2.5 10.4407 2.5 10C2.5 9.55928 2.54472 9.13034 2.61328 8.70898L1.29492 7.5625C0.933922 7.2485 0.846937 6.72164 1.08594 6.30664L2.59375 3.69336C2.83375 3.27936 3.33216 3.09205 3.78516 3.24805L5.42969 3.81445C6.0961 3.2674 6.85502 2.8338 7.67578 2.52344L8.00977 0.808594ZM14.5 10C14.5 7.791 12.709 6 10.5 6C8.291 6 6.5 7.791 6.5 10C6.5 12.209 8.291 14 10.5 14C12.709 14 14.5 12.209 14.5 10Z" fill="#B6B6B6"/>
</svg>
