<svg width="35" height="34" viewBox="0 0 35 34" fill="none" xmlns="http://www.w3.org/2000/svg">
<path fill-rule="evenodd" clip-rule="evenodd" d="M0.452148 16.124C0.452148 7.23374 8.06606 0 17.4248 0C26.7834 0 34.3974 7.23374 34.3974 16.124C34.3974 25.0143 26.7834 32.248 17.4248 32.248C15.7614 32.248 14.0964 32.007 12.4671 31.5335L8.00496 33.7637C6.87458 34.3289 5.54393 33.5057 5.54393 32.2412V27.6179C2.29877 24.59 0.452148 20.4436 0.452148 16.124ZM23.6555 16.4207L12.8983 8.9854C12.337 8.59748 11.5974 9.07663 11.7054 9.7587L13.7786 22.8483C13.8841 23.5142 14.7169 23.7319 15.1161 23.1991L17.4817 20.037L20.0952 23.9559C20.4561 24.5349 21.211 24.7018 21.7688 24.327C22.3192 23.9564 22.4685 23.1994 22.1038 22.6345L19.4106 18.8006L23.4214 17.7982C24.0511 17.6406 24.1952 16.7934 23.6555 16.4207Z" fill="url(#paint0_linear)"/>
<defs>
<linearGradient id="paint0_linear" x1="9.53802" y1="-24.2598" x2="-7.43458" y2="25.4589" gradientUnits="userSpaceOnUse">
<stop stop-color="#FAD961"/>
<stop offset="1" stop-color="#F76B1C"/>
</linearGradient>
</defs>
</svg>
