<svg width="42" height="40" viewBox="0 0 42 40" fill="none" xmlns="http://www.w3.org/2000/svg">
<path fill-rule="evenodd" clip-rule="evenodd" d="M40.9043 19C40.9043 8.52402 31.9323 0 20.9043 0C9.8763 0 0.904297 8.52402 0.904297 19C0.904297 29.4761 9.8763 38.0001 20.9043 38.0001C22.8643 38.0001 24.8263 37.7161 26.7463 37.1581L32.0043 39.7861C33.3363 40.4521 34.9043 39.4821 34.9043 37.9921V32.5441C38.7283 28.9761 40.9043 24.0901 40.9043 19ZM29.1059 19.3496L16.4299 10.5881C15.7685 10.131 14.897 10.6956 15.0243 11.4994L17.4672 26.9237C17.5915 27.7085 18.5728 27.965 19.0433 27.3371L21.8308 23.611L24.9106 28.2289C25.3357 28.9111 26.2253 29.1079 26.8826 28.6661C27.5312 28.2295 27.7071 27.3375 27.2774 26.6719L24.1038 22.1541L28.83 20.9729C29.572 20.7871 29.7418 19.7888 29.1059 19.3496Z" fill="url(#paint0_linear)"/>
<defs>
<linearGradient id="paint0_linear" x1="30.1978" y1="-28.587" x2="50.1978" y2="30" gradientUnits="userSpaceOnUse">
<stop stop-color="#FAD961"/>
<stop offset="1" stop-color="#F76B1C"/>
</linearGradient>
</defs>
</svg>
