<?xml version="1.0" encoding="utf-8"?><svg viewBox="0 0 48 48" xmlns="http://www.w3.org/2000/svg" xmlns:xlink="http://www.w3.org/1999/xlink"><style>:root>svg{display:none}:root>svg:target{display:block}</style><svg viewBox="0 0 20 20" id="ic_add" xmlns="http://www.w3.org/2000/svg"><path fill-rule="evenodd" clip-rule="evenodd" d="M0 10C0 4.477 4.477 0 10 0s10 4.477 10 10-4.477 10-10 10S0 15.523 0 10zm11 1h2a1 1 0 0 0 0-2h-2V7a1 1 0 0 0-2 0v2H7a1 1 0 0 0 0 2h2v2a1 1 0 0 0 2 0v-2z"/></svg><svg viewBox="0 0 10 6" id="ic_arr_down" xmlns="http://www.w3.org/2000/svg"><path d="M5 3.69L1.607.277a.938.938 0 0 0-1.331 0 .952.952 0 0 0 0 1.34l4.096 4.121c.347.35.91.35 1.256 0l4.096-4.12a.952.952 0 0 0 0-1.34.938.938 0 0 0-1.331 0L5 3.69z"/></svg><svg viewBox="0 0 21 14" id="ic_catalog" xmlns="http://www.w3.org/2000/svg"><path fill-rule="evenodd" clip-rule="evenodd" d="M1.014 0a1 1 0 1 0 0 2h18a1 1 0 1 0 0-2h-18zm0 6a1 1 0 1 0 0 2h18a1 1 0 1 0 0-2h-18zm0 6a1 1 0 1 0 0 2h18a1 1 0 1 0 0-2h-18z"/></svg><svg viewBox="0 0 18 18" id="ic_close" xmlns="http://www.w3.org/2000/svg"><path d="M1.29 0a1.283 1.283 0 0 0-.895 2.204l6.79 6.793-6.79 6.793a1.284 1.284 0 1 0 1.814 1.815L9 10.812l6.791 6.793a1.283 1.283 0 1 0 1.814-1.815l-6.79-6.793 6.79-6.793A1.284 1.284 0 1 0 15.791.389L9 7.182 2.209.39a1.283 1.283 0 0 0-.92-.388z"/></svg><svg viewBox="0 0 21 21" id="ic_delete" xmlns="http://www.w3.org/2000/svg"><path fill-rule="evenodd" clip-rule="evenodd" d="M0 10.5A10.49 10.49 0 0 1 10.5 0 10.49 10.49 0 0 1 21 10.5 10.49 10.49 0 0 1 10.5 21 10.49 10.49 0 0 1 0 10.5zm15.442 4.942c.41-.41.41-1.074 0-1.484L11.985 10.5l3.457-3.458a1.049 1.049 0 1 0-1.484-1.484L10.5 9.015 7.042 5.558a1.049 1.049 0 1 0-1.484 1.484L9.015 10.5l-3.457 3.458a1.049 1.049 0 1 0 1.484 1.484l3.458-3.457 3.458 3.457a1.047 1.047 0 0 0 1.484 0z"/></svg><svg viewBox="0 0 9 10" id="ic_edit" xmlns="http://www.w3.org/2000/svg"><path fill-rule="evenodd" clip-rule="evenodd" d="M7.66 0c-.343 0-.686.145-.948.436l-.555.617 1.895 2.106.556-.617c.523-.581.523-1.524 0-2.106A1.271 1.271 0 0 0 7.66 0zM5.446 1.843L.945 6.844s.476.003.71.264c.235.26.23.781.23.781s.483.01.718.272c.235.26.237.79.237.79l4.502-5.002-1.896-2.106zm-5.443 7.9l.311-1.846 1.578 1.754-1.66.345c-.136.028-.254-.103-.229-.254z"/></svg><svg viewBox="0 0 22 22" id="ic_email" xmlns="http://www.w3.org/2000/svg"><path fill-rule="evenodd" clip-rule="evenodd" d="M0 11C0 4.937 4.938 0 11 0c6.063 0 11 4.937 11 11v1.65a3.867 3.867 0 0 1-3.85 3.85 3.857 3.857 0 0 1-3.19-1.708A5.474 5.474 0 0 1 11 16.5c-3.025 0-5.5-2.476-5.5-5.5 0-3.025 2.475-5.5 5.5-5.5 2.983 0 5.427 2.41 5.494 5.377.004.041.006.082.006.123v1.65c0 .925.725 1.65 1.65 1.65.925 0 1.65-.725 1.65-1.65V11c0-4.874-3.926-8.8-8.8-8.8A8.783 8.783 0 0 0 2.2 11c0 4.874 3.926 8.8 8.8 8.8h4.4a1.1 1.1 0 1 1 0 2.2H11C4.938 22 0 17.062 0 11zm14.3 0c0-1.836-1.464-3.3-3.3-3.3A3.283 3.283 0 0 0 7.7 11c0 1.835 1.464 3.3 3.3 3.3 1.836 0 3.3-1.465 3.3-3.3z"/></svg><svg viewBox="0 0 23 18" id="ic_empty_image" xmlns="http://www.w3.org/2000/svg"><path fill-rule="evenodd" clip-rule="evenodd" d="M20.7 0H2.3C1.03 0 0 1.007 0 2.25v13.5C0 16.993 1.03 18 2.3 18h18.4c1.27 0 2.3-1.007 2.3-2.25V2.25C23 1.007 21.97 0 20.7 0zM9.2 4.5c.635 0 1.15.504 1.15 1.125S9.835 6.75 9.2 6.75c-.635 0-1.15-.504-1.15-1.125S8.565 4.5 9.2 4.5zM4.625 14.625H18.4c.474 0 .744-.529.46-.9l-4.033-5.26a.583.583 0 0 0-.914-.007l-3.563 4.49-2.418-2.847a.583.583 0 0 0-.896.014l-2.864 3.602c-.294.37-.025.908.453.908z"/></svg><svg viewBox="0 0 28 27" id="ic_facebook" xmlns="http://www.w3.org/2000/svg"><path d="M13.549.007C6.737.231 1.004 5.768.533 12.603c-.498 7.23 4.647 13.34 11.45 14.367v-9.806h-2.18c-.98 0-1.773-.797-1.773-1.783 0-.985.794-1.782 1.774-1.782h2.178v-2.373c0-3.93 1.904-5.654 5.154-5.654.482 0 .894.01 1.243.028a1.615 1.615 0 0 1 1.524 1.626c0 .9-.724 1.628-1.62 1.628h-.596c-1.38 0-1.862 1.315-1.862 2.796v1.95h2.525c.797 0 1.408.715 1.286 1.507l-.146.952a1.304 1.304 0 0 1-1.286 1.108h-2.379V27c6.592-.9 11.675-6.563 11.675-13.431C27.5 5.924 21.21-.242 13.549.007z"/></svg><svg viewBox="0 0 20 20" id="ic_filter" xmlns="http://www.w3.org/2000/svg"><path fill-rule="evenodd" clip-rule="evenodd" d="M8 0C6.707 0 5.605.843 5.187 2H0v2h5.188C5.604 5.157 6.707 6 8 6c1.645 0 3-1.355 3-3S9.645 0 8 0zm0 2c.564 0 1 .436 1 1 0 .564-.436 1-1 1-.564 0-1-.436-1-1 0-.564.436-1 1-1zm12 2h-7V2h7v2zm-7 3c-1.293 0-2.395.843-2.813 2H0v2h10.188c.417 1.157 1.519 2 2.812 2 1.645 0 3-1.355 3-3s-1.355-3-3-3zm1 3c0-.564-.436-1-1-1-.564 0-1 .436-1 1 0 .564.436 1 1 1 .564 0 1-.436 1-1zm4 1h2V9h-2v2zM2.187 16c.418-1.157 1.52-2 2.813-2 1.645 0 3 1.355 3 3s-1.355 3-3 3c-1.293 0-2.395-.843-2.813-2H0v-2h2.188zM5 16c.564 0 1 .436 1 1 0 .564-.436 1-1 1-.564 0-1-.436-1-1 0-.564.436-1 1-1zm15 2H10v-2h10v2z"/></svg><svg viewBox="0 0 30 29" id="ic_gift" xmlns="http://www.w3.org/2000/svg"><path fill-rule="evenodd" clip-rule="evenodd" d="M10.5 0C8.033 0 6 2.068 6 4.579c0 .537.111 1.046.282 1.526H3.188C1.589 6.105.135 7.293.009 8.913a3.052 3.052 0 0 0 1.492 2.874v14.16c0 1.68 1.35 3.053 3 3.053h9V13.737c0-.843.671-1.527 1.499-1.527.828 0 1.5.684 1.5 1.527V29h9c1.65 0 3-1.374 3-3.053v-14.16a3.052 3.052 0 0 0 1.49-2.874c-.125-1.62-1.579-2.808-3.178-2.808h-3.094c.17-.48.282-.989.282-1.526C24 2.069 21.967 0 19.5 0c-1.153 0-2.2.464-3 1.201V1.17l-.176.178L15 2.695l-1.324-1.348-.176-.178V1.2C12.7.464 11.653 0 10.5 0zm0 3.053c.846 0 1.5.665 1.5 1.526s-.654 1.526-1.5 1.526S9 5.44 9 4.58s.654-1.526 1.5-1.526zM21 4.579c0-.861-.654-1.526-1.5-1.526S18 3.718 18 4.579s.654 1.526 1.5 1.526S21 5.44 21 4.58z"/></svg><svg viewBox="0 0 35 32" id="ic_image" xmlns="http://www.w3.org/2000/svg"><path fill-rule="evenodd" clip-rule="evenodd" d="M0 3.2A3.19 3.19 0 0 1 3.182 0h25.454a3.19 3.19 0 0 1 3.182 3.2v10.878c0 .602-.744.884-1.13.425a4.748 4.748 0 0 0-3.642-1.703c-1.78 0-3.319.997-4.14 2.453l-2.395-3.212a.792.792 0 0 0-1.265-.013l-4.928 6.388-3.346-4.05a.794.794 0 0 0-1.24.018L5.773 19.51c-.407.525-.037 1.291.625 1.291h9.235c.6 0 .994.63.733 1.175A4.71 4.71 0 0 0 15.909 24c0 .563.114 1.098.292 1.6H3.181A3.19 3.19 0 0 1 0 22.4V3.2zm25.454 14.4c0-.883.713-1.6 1.591-1.6.879 0 1.591.717 1.591 1.6v4.8h4.773c.878 0 1.591.717 1.591 1.6 0 .883-.713 1.6-1.59 1.6h-4.774v4.8c0 .883-.712 1.6-1.59 1.6a1.596 1.596 0 0 1-1.591-1.6v-4.8h-4.773c-.878 0-1.591-.717-1.591-1.6 0-.883.713-1.6 1.59-1.6h4.773v-4.8z"/></svg><svg viewBox="0 0 22 16" id="ic_menu" xmlns="http://www.w3.org/2000/svg"><path fill-rule="evenodd" clip-rule="evenodd" d="M1.6.426a1.047 1.047 0 0 0-.917.511c-.19.321-.19.718 0 1.04.19.32.54.515.917.51h18.8c.376.005.727-.19.917-.51.19-.322.19-.719 0-1.04a1.047 1.047 0 0 0-.917-.51H1.6zM8.813 6.61a1.047 1.047 0 0 0-.916.51c-.19.322-.19.719 0 1.04.19.32.54.516.916.51H20.4c.376.006.727-.19.917-.51.19-.321.19-.718 0-1.04a1.047 1.047 0 0 0-.917-.51H8.813zm-8.13 6.694c.19-.322.54-.517.917-.512h18.8c.376-.005.727.19.917.511.19.321.19.718 0 1.04-.19.32-.54.516-.917.51H1.6a1.047 1.047 0 0 1-.917-.51 1.019 1.019 0 0 1 0-1.04z"/></svg><svg viewBox="0 0 27 27" id="ic_odnokl" xmlns="http://www.w3.org/2000/svg"><path fill-rule="evenodd" clip-rule="evenodd" d="M0 13.5C0 6.056 6.056 0 13.5 0S27 6.056 27 13.5 20.944 27 13.5 27 0 20.944 0 13.5zM17 9a4 4 0 1 0-8 0 4 4 0 0 0 8 0zm-4-2a2 2 0 1 0 0 4 2 2 0 0 0 0-4zm-2.366 7.146a1.076 1.076 0 0 0-.568-.145C9.502 14.018 9 14.493 9 15.173c0 .488.25.938.65 1.162.47.262.972.465 1.488.629L9.33 18.921a1.29 1.29 0 0 0 0 1.722 1.065 1.065 0 0 0 1.59 0l2.58-2.792 2.58 2.792c.219.238.507.357.795.357.288 0 .576-.119.795-.357a1.29 1.29 0 0 0 0-1.722l-1.808-1.957a8.067 8.067 0 0 0 1.488-.63c.4-.224.65-.673.65-1.16 0-.908-.892-1.45-1.634-1.028a5.76 5.76 0 0 1-2.866.766 5.76 5.76 0 0 1-2.866-.766z"/></svg><svg viewBox="0 0 15 16" id="ic_open" xmlns="http://www.w3.org/2000/svg"><path fill-rule="evenodd" clip-rule="evenodd" d="M14.05.508a.834.834 0 0 1 .737.269.833.833 0 0 1 .205.67v4.059a.833.833 0 1 1-1.666 0V3.352l-7.74 7.74a.833.833 0 1 1-1.178-1.178l7.74-7.74H9.996a.833.833 0 1 1 0-1.666h4.055zM0 2.174C0 1.264.755.508 1.666.508h4.997a.833.833 0 1 1 0 1.666H1.666v11.66h11.66V8.837a.833.833 0 1 1 1.666 0v4.997c0 .91-.755 1.666-1.666 1.666H1.666C.756 15.5 0 14.745 0 13.834V2.174z"/></svg><svg viewBox="0 0 32 28" id="ic_organization" xmlns="http://www.w3.org/2000/svg"><path fill-rule="evenodd" clip-rule="evenodd" d="M6.4 0C4.633 0 3.2 1.393 3.2 3.111c0 1.718 1.433 3.111 3.2 3.111 1.767 0 3.2-1.393 3.2-3.11C9.6 1.391 8.167 0 6.4 0zm19.2 0c-1.767 0-3.2 1.393-3.2 3.111 0 1.718 1.433 3.111 3.2 3.111 1.767 0 3.2-1.393 3.2-3.11C28.8 1.391 27.367 0 25.6 0zM12.8 9.333c0-1.718 1.433-3.11 3.2-3.11 1.767 0 3.2 1.392 3.2 3.11 0 1.719-1.433 3.111-3.2 3.111-1.767 0-3.2-1.392-3.2-3.11zm-6.4 3.111c-1.767 0-3.2 1.393-3.2 3.112 0 1.718 1.433 3.11 3.2 3.11 1.767 0 3.2-1.392 3.2-3.11 0-1.719-1.433-3.112-3.2-3.112zm16 3.112c0-1.719 1.433-3.112 3.2-3.112 1.767 0 3.2 1.393 3.2 3.112 0 1.718-1.433 3.11-3.2 3.11-1.767 0-3.2-1.392-3.2-3.11zm-16 6.222c-2.136 0-6.4 1.121-6.4 3.19v1.476C0 27.304.717 28 1.6 28h9.6c.883 0 1.6-.697 1.6-1.556v-1.476c0-2.069-4.264-3.19-6.4-3.19zm12.8 3.19c0-2.069 4.264-3.19 6.4-3.19s6.4 1.121 6.4 3.19v1.476c0 .86-.717 1.556-1.6 1.556h-9.6c-.883 0-1.6-.697-1.6-1.556v-1.476z"/></svg><svg viewBox="0 0 22 22" id="ic_phone" xmlns="http://www.w3.org/2000/svg"><path d="M19.832 14.99l-3.086-.355a2.438 2.438 0 0 0-2.008.698L12.472 17.6a18.348 18.348 0 0 1-4.676-3.395 18.349 18.349 0 0 1-3.395-4.676l2.266-2.266a2.438 2.438 0 0 0 .698-2.008L7.01 2.168A2.451 2.451 0 0 0 4.573 0h-2.12C1.07 0-.08 1.151.005 2.535a20.74 20.74 0 0 0 6.054 13.407 20.74 20.74 0 0 0 13.407 6.053C20.849 22.081 22 20.93 22 19.547v-2.119c0-1.249-.93-2.29-2.168-2.437z"/></svg><svg viewBox="0 0 26 26" id="ic_profile_ads" xmlns="http://www.w3.org/2000/svg"><path fill-rule="evenodd" clip-rule="evenodd" d="M14.3 0c-.612 0-1.124.468-1.173 1.08l-.02.245c-.002.024.002.046.007.069a.287.287 0 0 1 .008.053 5.172 5.172 0 0 0-2.608 1.508c-.016-.01-.03-.022-.043-.034a.226.226 0 0 0-.056-.042l-.22-.104a1.179 1.179 0 0 0-1.524.475 1.174 1.174 0 0 0 .348 1.554l.203.142a.27.27 0 0 0 .07.032.354.354 0 0 1 .054.021A5.144 5.144 0 0 0 9.1 6.5c0 .525.101 1.023.246 1.5-.017.01-.035.016-.054.022a.27.27 0 0 0-.07.032l-.203.14a1.177 1.177 0 0 0 1.175 2.03l.221-.103c.022-.01.04-.026.056-.042.014-.012.027-.025.043-.035a5.17 5.17 0 0 0 2.605 1.509.296.296 0 0 1-.008.053c-.004.023-.009.045-.007.069l.023.246c.05.61.56 1.079 1.173 1.079.612 0 1.124-.468 1.173-1.08l.02-.245a.23.23 0 0 0-.007-.069c-.004-.017-.007-.035-.008-.053a5.172 5.172 0 0 0 2.608-1.509c.016.01.03.023.043.035a.227.227 0 0 0 .056.042l.22.106a1.177 1.177 0 1 0 1.176-2.031l-.203-.142a.27.27 0 0 0-.07-.032c-.018-.006-.037-.012-.054-.021.145-.478.246-.976.246-1.501 0-.525-.101-1.023-.246-1.5.017-.01.036-.016.054-.022a.27.27 0 0 0 .07-.032l.203-.14a1.177 1.177 0 0 0-1.175-2.03l-.221.103a.227.227 0 0 0-.056.042.284.284 0 0 1-.043.034 5.172 5.172 0 0 0-2.605-1.508c0-.018.004-.036.008-.053.004-.022.009-.045.007-.069l-.023-.246A1.176 1.176 0 0 0 14.3 0zm0 4.55a1.95 1.95 0 1 1-.001 3.902A1.95 1.95 0 0 1 14.3 4.55zm8.562 8.988c.359-.358.83-.538 1.3-.538a1.84 1.84 0 0 1 1.3 3.138l-6.5 6.5a2.601 2.601 0 0 1-1.838.762H7.8L5.2 26 0 20.8l4.98-4.977A5.196 5.196 0 0 1 8.652 14.3h6.297c1.073 0 1.95.877 1.95 1.95s-.877 1.95-1.95 1.95H11.7a.65.65 0 0 0 0 1.3h5.2l5.962-5.962z"/></svg><svg viewBox="0 0 30 23" id="ic_profile_hide" xmlns="http://www.w3.org/2000/svg"><path fill-rule="evenodd" clip-rule="evenodd" d="M15.002 0C5.652 0 1.212 8.45.135 10.863c-.18.402-.18.869 0 1.271C1.212 14.548 5.652 23 15.002 23c9.318 0 13.76-8.39 14.857-10.837a1.627 1.627 0 0 0 0-1.326C28.763 8.391 24.32 0 15.002 0zm0 4.313c3.765 0 6.817 3.218 6.817 7.187 0 3.969-3.052 7.188-6.817 7.188-3.764 0-6.817-3.22-6.817-7.188 0-3.969 3.053-7.188 6.817-7.188zm-4.09 7.187c0-2.382 1.831-4.313 4.09-4.313 2.26 0 4.09 1.931 4.09 4.313 0 2.382-1.83 4.313-4.09 4.313-2.259 0-4.09-1.931-4.09-4.313z"/></svg><svg viewBox="0 0 26 26" id="ic_profile_promotion" xmlns="http://www.w3.org/2000/svg"><path fill-rule="evenodd" clip-rule="evenodd" d="M20.193.765L25.21.008a.686.686 0 0 1 .781.781l-.757 5.017a.687.687 0 0 1-1.165.384l-1.16-1.157-5.155 5.153a1.375 1.375 0 0 1-1.911.03l-1.217-1.14-4.696 4.81a1.375 1.375 0 0 1-1.954.01l-1.1-1.1-4.522 4.431A1.375 1.375 0 1 1 .43 15.265L5.926 9.88a1.375 1.375 0 0 1 1.933.011l1.08 1.08 4.663-4.779a1.375 1.375 0 0 1 1.922-.043l1.23 1.152 4.212-4.212-1.157-1.16a.687.687 0 0 1 .384-1.164zm1.815 11.472a1.375 1.375 0 1 1 2.75 0v12.37a1.374 1.374 0 1 1-2.75 0v-12.37zm-4.145 1.356a1.375 1.375 0 0 0-1.354 1.393v9.62a1.375 1.375 0 1 0 2.75 0v-9.62a1.374 1.374 0 0 0-1.396-1.393zm-6.852 4.142a1.375 1.375 0 1 1 2.749 0v6.871a1.374 1.374 0 1 1-2.75 0v-6.872zM6.865 19.09a1.375 1.375 0 0 0-1.353 1.393v4.123a1.374 1.374 0 1 0 2.75 0v-4.123a1.374 1.374 0 0 0-1.397-1.393zM.014 23.232a1.375 1.375 0 1 1 2.749 0v1.374a1.374 1.374 0 1 1-2.75 0v-1.374z"/></svg><svg viewBox="0 0 17 17" id="ic_search" xmlns="http://www.w3.org/2000/svg"><path fill-rule="evenodd" clip-rule="evenodd" d="M0 5.95C0 2.674 2.674 0 5.95 0c3.276 0 5.95 2.674 5.95 5.95a5.915 5.915 0 0 1-1.46 3.888l.361.362H11.9l4.748 4.748a1.203 1.203 0 0 1-1.7 1.7L10.2 11.9v-1.099l-.362-.362A5.915 5.915 0 0 1 5.95 11.9C2.674 11.9 0 9.226 0 5.95zm10.2 0A4.237 4.237 0 0 0 5.95 1.7 4.237 4.237 0 0 0 1.7 5.95a4.237 4.237 0 0 0 4.25 4.25 4.237 4.237 0 0 0 4.25-4.25z"/></svg><svg viewBox="0 0 24 28" id="ic_service1" xmlns="http://www.w3.org/2000/svg"><path fill-rule="evenodd" clip-rule="evenodd" d="M1.026 0C.264 0-.232.768.11 1.42l4.982 9.515c-2.05 1.776-3.34 4.337-3.353 7.22-.025 5.284 4.58 9.773 10.112 9.844 5.786.076 10.41-4.29 10.41-9.798 0-2.902-1.291-5.48-3.352-7.266L23.89 1.42C24.23.77 23.737 0 22.974 0h-5.671c-.556 0-1.061.3-1.309.774L12 8.4 8.006.774A1.469 1.469 0 0 0 6.698 0H1.026zM12 11.2c4.105 0 7.33 3.08 7.33 7.001 0 3.92-3.225 7-7.33 7-4.104 0-7.33-3.08-7.33-7s3.226-7 7.33-7zm-2.199 4.48c1.32 0 2.053-1.26 2.2-1.68h1.465v8.401h-2.053V17.08H9.801v-1.4z"/></svg><svg viewBox="0 0 26 25" id="ic_service2" xmlns="http://www.w3.org/2000/svg"><path fill-rule="evenodd" clip-rule="evenodd" d="M6.5 22.335C6.5 23.801 7.67 25 9.1 25h10.4c1.04 0 1.82-.533 2.21-1.466l3.9-9.06a3.62 3.62 0 0 0 .39-1.6v-1.199c0-1.466-1.17-2.665-2.6-2.665h-9.1s1.3-3.198 1.3-5.463c0-2.132-1.3-3.198-2.47-3.465-.65-.266-1.56.133-1.69.933l-.78 3.331-3.51 3.998c-.39.4-.65 1.066-.65 1.732v12.259zM3.9 11.009c0-1.066-.91-1.999-1.95-1.999S0 9.943 0 11.009V23C0 24.067.91 25 1.95 25s1.95-.933 1.95-1.999V11.01z"/></svg><svg viewBox="0 0 32 31" id="ic_service3" xmlns="http://www.w3.org/2000/svg"><path fill-rule="evenodd" clip-rule="evenodd" d="M25.544 0c-.713 0-1.364.392-1.684 1.01l-1.003 1.942-9.744 4.045c-.56.234-.923.765-.923 1.355v9.864c0 .59.362 1.126.923 1.358l5.208 2.223c.021-.262.061-.52.128-.77l.002-.004v-.002l.004-.009c.066-.24.145-.474.25-.7.016-.035.035-.068.055-.101a1.41 1.41 0 0 0 .04-.072l.037-.07c.077-.147.155-.294.252-.432.155-.223.335-.434.536-.628a4.59 4.59 0 0 1 2.333-1.21c.293-.055.594-.085.899-.085 1.22 0 2.37.46 3.232 1.298l.577.559.578-.56c.032-.031.068-.058.104-.084.027-.02.054-.04.08-.063v-3.027a2.937 2.937 0 0 0 1.524-2.551 2.937 2.937 0 0 0-1.524-2.555V1.825C27.428.817 26.585 0 25.544 0zM3.048 7.38C1.37 7.38 0 8.71 0 10.334v5.905c0 1.624 1.371 2.952 3.048 2.952h3.047v5.905c0 .815.683 1.476 1.524 1.476s1.524-.661 1.524-1.476V8.857c0-.815-.683-1.476-1.524-1.476H3.048zM21.779 21.1a1.543 1.543 0 0 1 1.078-.433c.39 0 .78.144 1.077.433l2.732 2.647 2.732-2.647a1.557 1.557 0 0 1 2.155 0 1.442 1.442 0 0 1 0 2.087l-2.732 2.647 2.7 2.615a1.442 1.442 0 0 1 0 2.087 1.557 1.557 0 0 1-2.155 0l-2.7-2.615-2.732 2.647a1.557 1.557 0 0 1-2.155 0 1.442 1.442 0 0 1 0-2.087l2.733-2.647-2.733-2.647a1.442 1.442 0 0 1 0-2.087z"/></svg><svg viewBox="0 0 27 30" id="ic_service4" xmlns="http://www.w3.org/2000/svg"><path fill-rule="evenodd" clip-rule="evenodd" d="M7.95 2.609C8.481 1.092 9.895 0 11.571 0c1.677 0 3.09 1.092 3.622 2.609h5.378c1.421 0 2.572 1.167 2.572 2.608v9.515a9.122 9.122 0 0 0-1.286-.287v.007a8.891 8.891 0 0 0-1.286-.104c-4.97 0-9 4.088-9 9.13 0 .444.043.878.103 1.305h-.007c.063.446.159.881.284 1.304H2.57C1.151 26.087 0 24.92 0 23.478V5.218c0-1.442 1.15-2.61 2.571-2.61h5.38zm4.907 1.304c0-.72-.576-1.304-1.286-1.304-.71 0-1.285.584-1.285 1.304 0 .72.576 1.304 1.285 1.304.71 0 1.286-.584 1.286-1.304zm7.714 13.043c-3.55 0-6.428 2.921-6.428 6.522 0 3.602 2.879 6.522 6.428 6.522C24.121 30 27 27.08 27 23.478c0-3.601-2.879-6.522-6.429-6.522zm1.286 3.914c0-.72-.576-1.305-1.286-1.305-.71 0-1.285.585-1.285 1.305v1.304H18c-.71 0-1.286.584-1.286 1.304 0 .72.576 1.305 1.286 1.305h1.286v1.304c0 .72.576 1.304 1.285 1.304.71 0 1.286-.584 1.286-1.304v-1.304h1.286c.71 0 1.286-.585 1.286-1.305s-.576-1.304-1.286-1.304h-1.286V20.87z"/></svg><svg viewBox="0 0 14 16" id="ic_share1" xmlns="http://www.w3.org/2000/svg"><path d="M11.667 0c-1.289 0-2.334 1.075-2.334 2.4 0 .15.015.3.043.448l-5.534 3.32A2.295 2.295 0 0 0 2.333 5.6C1.045 5.6 0 6.675 0 8s1.045 2.4 2.333 2.4a2.295 2.295 0 0 0 1.506-.57l5.537 3.322a2.466 2.466 0 0 0-.043.448c0 1.325 1.045 2.4 2.334 2.4C12.955 16 14 14.925 14 13.6s-1.045-2.4-2.333-2.4c-.552 0-1.086.203-1.507.57L4.624 8.448c.028-.147.042-.297.043-.448 0-.15-.015-.3-.043-.448l5.534-3.32c.422.367.956.568 1.509.568C12.955 4.8 14 3.725 14 2.4S12.955 0 11.667 0z"/></svg><svg viewBox="0 0 14 14" id="ic_share2"><path fill-rule="evenodd" clip-rule="evenodd" d="M1.4 0A1.4 1.4 0 0 0 0 1.4v9.1a.7.7 0 0 0 1.4 0V1.4h9.1a.7.7 0 0 0 0-1.4H1.4zm2.8 2.8a1.4 1.4 0 0 0-1.4 1.4v8.4A1.4 1.4 0 0 0 4.2 14h8.4a1.4 1.4 0 0 0 1.4-1.4V4.2a1.4 1.4 0 0 0-1.4-1.4H4.2zm7.785 2.015a2.093 2.093 0 0 0-1.485-.614c-.538 0-1.075.205-1.485.614l-.89.89a.7.7 0 1 0 .99.99l.89-.89a.7.7 0 1 1 .99.99l-.87.87a.7.7 0 1 0 .99.99l.87-.87c.397-.397.615-.924.615-1.485 0-.56-.218-1.089-.615-1.485zM8.66 7.44a.7.7 0 0 1 .495 1.195l-.524.522a.695.695 0 0 1-.988 0 .698.698 0 0 1 0-.988l.522-.524a.698.698 0 0 1 .495-.205zM6.69 8.13a.698.698 0 0 0-.99 0l-.885.884A2.089 2.089 0 0 0 4.2 10.5c0 .56.219 1.089.615 1.485.396.397.924.615 1.485.615.56 0 1.089-.218 1.485-.615l.884-.885a.7.7 0 1 0-.99-.99l-.884.885a.716.716 0 0 1-.99 0A.695.695 0 0 1 5.6 10.5c0-.187.073-.363.205-.495l.885-.884a.7.7 0 0 0 0-.99z"/></svg><svg viewBox="0 0 19 15" id="ic_slider_arr" xmlns="http://www.w3.org/2000/svg"><path d="M11.837 0a1.05 1.05 0 0 0-.76.332l-.093.097c-.421.44-.421 1.154 0 1.593l4.157 4.352H1.076C.482 6.374 0 6.88 0 7.501s.482 1.127 1.076 1.127h14.065l-4.157 4.352c-.421.44-.421 1.153 0 1.593l.092.097c.42.44 1.102.44 1.522 0l6.086-6.373c.421-.44.421-1.153 0-1.593L12.598.332A1.05 1.05 0 0 0 11.837 0z"/></svg><svg viewBox="0 0 27 26" id="ic_support" xmlns="http://www.w3.org/2000/svg"><path fill-rule="evenodd" clip-rule="evenodd" d="M2.316 10.4C2.316 4.672 7.044 0 12.842 0s10.526 4.672 10.526 10.4V13C24.816 13 26 14.17 26 15.6v2.6c0 1.43-1.184 2.6-2.632 2.6H13.5c-.047 0-.094-.003-.141-.008a1.96 1.96 0 0 1-1.833-1.942c0-.517.208-1.013.578-1.379.37-.366.873-.571 1.396-.571.835.001 1.58.522 1.858 1.3h5.379v-6.5c0-.734-.572-1.3-1.316-1.3H6.263c-.743 0-1.316.566-1.316 1.3v2.407l-.66.373c-.4.227-.655.62-.655 1.12 0 .67.485 1.187 1.133 1.275l.77.106.281.716C7.172 21.19 9.87 23.4 12.842 23.4h3.947V26h-3.947c-4.144 0-7.573-2.96-9.285-7.003C2.128 18.412 1 17.215 1 15.6c0-1.1.56-2.016 1.316-2.727V10.4zm18.007-2.486C19.277 4.82 16.336 2.6 12.843 2.6c-3.495 0-6.436 2.22-7.482 5.314.291-.068.591-.114.902-.114h13.158c.311 0 .61.046.902.114z"/></svg><svg viewBox="0 0 13 12" id="ic_telegram" xmlns="http://www.w3.org/2000/svg"><path fill-rule="evenodd" clip-rule="evenodd" d="M11.824.094c.36-.147.709-.12.93.071.16.136.324.414.206.96L11.02 11.348c-.016.043-.171.419-.56.58a.925.925 0 0 1-.358.072c-.161 0-.33-.04-.507-.119l-.061-.037L6.94 9.79l-1.608 1.513a.597.597 0 0 1-.587.107c-.253-.079-.398-.46-.486-.749a729.83 729.83 0 0 1-.912-3.064L3.3 7.434.669 6.52c-.065-.024-.603-.234-.664-.743-.069-.564.6-.817.676-.844.421-.184 10.764-4.685 11.143-4.84zM4.731 10.199l.887-2.4 5.026-5.7-6.8 5.1.887 3z"/></svg><svg viewBox="0 0 31 31" id="ic_user" xmlns="http://www.w3.org/2000/svg"><path fill-rule="evenodd" clip-rule="evenodd" d="M15.5 0C6.94 0 0 6.94 0 15.5 0 24.06 6.94 31 15.5 31 24.06 31 31 24.06 31 15.5 31 6.94 24.06 0 15.5 0zm0 4.263a5.037 5.037 0 1 1 0 10.074 5.037 5.037 0 0 1 0-10.075zM6.064 23.54A12.366 12.366 0 0 0 15.5 27.9c3.779 0 7.163-1.691 9.438-4.359.59-.69.459-1.733-.268-2.28-2.353-1.768-6.637-2.661-9.17-2.661-2.533 0-6.817.893-9.168 2.661-.727.547-.859 1.588-.268 2.28z"/></svg><svg viewBox="0 0 12 14" id="ic_viber" xmlns="http://www.w3.org/2000/svg"><path fill-rule="evenodd" clip-rule="evenodd" d="M11.652 3.103c-.223-.851-.664-1.525-1.312-2.001C9.523.5 8.583.286 7.772.157c-1.123-.18-2.14-.205-3.11-.078C3.755.2 3.07.39 2.446.695 1.222 1.295.487 2.27.263 3.586.154 4.226.081 4.804.04 5.355-.06 6.629.029 7.758.31 8.803c.274 1.02.752 1.748 1.464 2.226.181.122.413.21.637.295.113.043.22.085.315.13v2.058c0 .27.204.488.456.488a.44.44 0 0 0 .318-.138l1.777-1.848c.046-.056.064-.079.088-.089.017-.006.036-.007.069-.008a51.095 51.095 0 0 0 1.844-.073c.746-.044 1.611-.12 2.426-.484.746-.333 1.29-.862 1.617-1.57.341-.74.544-1.542.62-2.45.133-1.597.038-2.983-.29-4.237zM8.56 9.182a1.6 1.6 0 0 1-.76.668c-.23.102-.464.08-.69-.022-1.901-.86-3.39-2.216-4.376-4.163a8.734 8.734 0 0 1-.385-.938l-.121-.325a.724.724 0 0 1-.035-.19c-.003-.032-.005-.063-.01-.094.014-.686.505-1.071 1.002-1.188.19-.045.358.027.498.17.39.399.698.86.93 1.376a.491.491 0 0 1-.117.596 1.415 1.415 0 0 1-.112.1c-.395.316-.453.556-.242 1.034.357.813.951 1.358 1.72 1.696.202.09.393.045.548-.13l.014-.015a.331.331 0 0 0 .046-.058c.303-.541.742-.487 1.148-.179.162.123.321.25.48.378l.31.245c.4.315.396.612.152 1.039zM5.974 3.61c.1-.018.203-.027.305-.027 1.006 0 1.825.876 1.825 1.953 0 .11-.008.219-.025.325-.029.182.086.353.256.384a.263.263 0 0 0 .051.005c.15 0 .282-.116.308-.279.022-.142.033-.29.033-.436 0-1.444-1.098-2.619-2.448-2.619a2.38 2.38 0 0 0-.408.036c-.17.03-.284.202-.256.384.028.182.189.305.359.274zm1.662 2.14c0 .184-.14.333-.311.333-.172 0-.311-.15-.311-.333 0-.551-.42-1-.935-1-.172 0-.312-.15-.312-.333 0-.184.14-.333.312-.333.858 0 1.557.747 1.557 1.666zm1.795.666a.316.316 0 0 0 .303-.26c.056-.26.084-.53.084-.8 0-1.989-1.512-3.606-3.371-3.606-.253 0-.505.03-.75.09-.168.04-.273.218-.235.398.038.18.206.293.373.251.199-.048.404-.072.61-.072 1.517 0 2.75 1.318 2.75 2.939 0 .22-.024.44-.069.653-.038.18.067.358.235.399a.312.312 0 0 0 .07.008z"/></svg><svg viewBox="0 0 48 48" id="ic_video" xmlns="http://www.w3.org/2000/svg"><path fill-rule="evenodd" clip-rule="evenodd" d="M0 24C0 10.745 10.745 0 24 0s24 10.745 24 24-10.745 24-24 24S0 37.255 0 24zm21.12-9.36c-.792-.593-1.92-.029-1.92.96v16.8c0 .989 1.128 1.553 1.92.96l11.2-8.4a1.2 1.2 0 0 0 0-1.92l-11.2-8.4z"/></svg><svg viewBox="0 0 22 16" id="ic_views" xmlns="http://www.w3.org/2000/svg"><path fill-rule="evenodd" clip-rule="evenodd" d="M11 0C4.142 0 .886 5.879.096 7.557c-.132.28-.132.604 0 .884C.886 10.121 4.142 16 11 16c6.834 0 10.093-5.837 10.897-7.54a1.078 1.078 0 0 0 0-.92C21.093 5.836 17.834 0 11 0zm0 3a5 5 0 1 1 0 10.001A5 5 0 0 1 11 3zM8 8a3 3 0 1 1 6 0 3 3 0 0 1-6 0z"/></svg><svg viewBox="0 0 27 27" id="ic_vkontakte" xmlns="http://www.w3.org/2000/svg"><path fill-rule="evenodd" clip-rule="evenodd" d="M0 13.5C0 6.045 6.045 0 13.5 0S27 6.045 27 13.5 20.955 27 13.5 27 0 20.955 0 13.5zm19.134 5.492l2.135-.03s1.118-.068.589-.935a.683.683 0 0 1-.015-.026c-.077-.139-.393-.707-1.574-1.787-.566-.517-.861-.782-.892-1.073-.041-.4.412-.851 1.345-2.076.983-1.29 1.376-2.079 1.252-2.416-.117-.323-.84-.238-.84-.238l-2.406.015s-.178-.025-.31.054c-.13.076-.213.254-.213.254s-.38 1-.89 1.85c-1.068 1.793-1.497 1.888-1.673 1.776-.34-.216-.324-.8-.31-1.312.002-.1.005-.195.005-.285 0-.4.014-.746.027-1.045.04-.998.06-1.461-.548-1.606-.26-.063-.454-.104-1.123-.11-.858-.008-1.585.003-1.996.201-.275.133-.485.428-.356.445.158.019.52.095.711.353.247.33.238 1.073.238 1.073s.142 2.045-.331 2.3c-.325.174-.769-.183-1.724-1.81-.49-.834-.86-1.756-.86-1.756s-.072-.173-.198-.265c-.156-.113-.37-.15-.37-.15l-2.287.011s-.342.005-.468.151c-.112.133-.007.392-.007.392s1.79 4.105 3.815 6.185c1.86 1.908 3.97 1.736 3.97 1.736h.956s.29.016.437-.14c.136-.146.131-.368.131-.368s-.018-1.265.578-1.452c.354-.11.77.36 1.22.868.294.332.603.681.92.895.601.41 1.062.32 1.062.32z"/></svg><svg viewBox="0 0 19 17" id="ic_website" xmlns="http://www.w3.org/2000/svg"><path fill-rule="evenodd" clip-rule="evenodd" d="M9.5 0a8.658 8.658 0 0 0-7.467 4.25H4.14a6.927 6.927 0 0 1 2.972-2.123c-.27.618-.487 1.341-.653 2.123h1.777C8.65 2.57 9.23 1.7 9.5 1.7c.27 0 .85.87 1.263 2.55h1.777a11.191 11.191 0 0 0-.653-2.123 6.932 6.932 0 0 1 2.972 2.123h2.108A8.658 8.658 0 0 0 9.5 0zM0 5.95l1.073 5.1h1.13l.734-2.95.732 2.95h1.125l1.073-5.1h-1.3l-.463 2.86-.69-2.86h-.961L1.76 8.815 1.302 5.95H0zm7.64 5.1l-1.073-5.1h1.302l.46 2.865.69-2.865h.963l.689 2.86.465-2.86h1.297l-1.072 5.1h-1.126L9.503 8.1l-.733 2.95H7.64zm5.493-5.1l1.073 5.1h1.13l.734-2.95.732 2.95h1.125L19 5.95h-1.299l-.464 2.86-.69-2.86h-.961l-.692 2.865-.459-2.865h-1.302zM9.5 17a8.658 8.658 0 0 1-7.467-4.25H4.14a6.932 6.932 0 0 0 2.972 2.123 11.196 11.196 0 0 1-.653-2.123h1.777c.413 1.68.991 2.55 1.261 2.55.27 0 .85-.87 1.264-2.55h1.776c-.166.782-.382 1.505-.651 2.123a6.926 6.926 0 0 0 2.972-2.123h2.108A8.658 8.658 0 0 1 9.5 17z"/></svg><svg viewBox="0 0 21 21" id="ic_whatsapp" xmlns="http://www.w3.org/2000/svg"><path fill-rule="evenodd" clip-rule="evenodd" d="M9.628.831c2.862-.188 5.533.754 7.537 2.734 2.575 2.546 3.434 6.317 2.194 9.993-1.24 3.677-4.961 6.128-8.968 6.128-1.622 0-3.148-.377-4.483-1.13l-4.293 1.13c-.382.095-.764-.282-.668-.66l1.24-4.053C.851 12.71.565 9.976 1.328 7.43c1.145-3.677 4.484-6.317 8.3-6.6zm3.816 13.953c.477-.094 1.431-.566 1.622-1.131.111-.332.158-.63.196-.878.027-.175.05-.325.09-.442-.095-.094-.19-.189-.477-.283-.19-.094-1.336-.66-1.622-.754l-.113-.04c-.203-.074-.296-.108-.46.134-.09.134-.245.311-.393.48-.164.187-.32.364-.37.463-.095.188-.19.188-.476.094a3.566 3.566 0 0 0-.119-.054 7.94 7.94 0 0 1-1.79-1.077c-.763-.566-1.24-1.32-1.335-1.603-.19-.188 0-.377.095-.471l.382-.377a.494.494 0 0 0 .113-.197c.019-.05.041-.108.078-.18a.284.284 0 0 0 0-.377 53.992 53.992 0 0 1-.763-1.792c-.191-.377-.382-.377-.573-.377h-.477c-.19 0-.477 0-.667.283-.287.283-.86.848-.86 1.98 0 .953.61 1.907.86 2.296.046.072.08.125.095.155.028.028.086.105.17.22.491.661 1.9 2.56 3.932 3.362 1.69.636 2.225.602 2.638.576.077-.005.15-.01.224-.01z"/></svg></svg>